<svg version="1.1" xmlns="http://www.w3.org/2000/svg" viewBox="0 0 1380 1220" width="1380" height="1220">
  <!-- svg-source:excalidraw -->
  
  <defs>
    <style class="style-fonts">
      @font-face {
        font-family: "Virgil";
        src: url("https://file%2B.vscode-resource.vscode-cdn.net/Users/andrewl/.vscode/extensions/pomdtr.excalidraw-editor-3.7.4/public//dist/excalidraw-assets/Virgil.woff2");
      }
      @font-face {
        font-family: "Cascadia";
        src: url("https://file%2B.vscode-resource.vscode-cdn.net/Users/andrewl/.vscode/extensions/pomdtr.excalidraw-editor-3.7.4/public//dist/excalidraw-assets/Cascadia.woff2");
      }
      @font-face {
        font-family: "Assistant";
        src: url("https://file%2B.vscode-resource.vscode-cdn.net/Users/andrewl/.vscode/extensions/pomdtr.excalidraw-editor-3.7.4/public//dist/excalidraw-assets/Assistant-Regular.woff2");
      }
    </style>
    
  </defs>
  <rect x="0" y="0" width="1380" height="1220" fill="#ffffff"></rect><g stroke-linecap="round" transform="translate(10 390) rotate(0 180 80)"><path d="M0 0 L360 0 L360 160 L0 160" stroke="none" stroke-width="0" fill="#e9ecef"></path><path d="M0 0 C94.34 0, 188.67 0, 360 0 M0 0 C108.41 0, 216.83 0, 360 0 M360 0 C360 59.54, 360 119.08, 360 160 M360 0 C360 47.49, 360 94.99, 360 160 M360 160 C245.67 160, 131.35 160, 0 160 M360 160 C234.98 160, 109.96 160, 0 160 M0 160 C0 110.3, 0 60.6, 0 0 M0 160 C0 108.97, 0 57.94, 0 0" stroke="#1e1e1e" stroke-width="2" fill="none"></path></g><g transform="translate(15 402.79999999999995) rotate(0 168.75 67.19999999999999)"><text x="0" y="0" font-family="Cascadia, Segoe UI Emoji" font-size="16px" fill="#1e1e1e" text-anchor="start" style="white-space: pre;" direction="ltr" dominant-baseline="text-before-edge">struct stat</text><text x="0" y="19.2" font-family="Cascadia, Segoe UI Emoji" font-size="16px" fill="#1e1e1e" text-anchor="start" style="white-space: pre;" direction="ltr" dominant-baseline="text-before-edge"></text><text x="0" y="38.4" font-family="Cascadia, Segoe UI Emoji" font-size="16px" fill="#1e1e1e" text-anchor="start" style="white-space: pre;" direction="ltr" dominant-baseline="text-before-edge">.st_atime // access</text><text x="0" y="57.599999999999994" font-family="Cascadia, Segoe UI Emoji" font-size="16px" fill="#1e1e1e" text-anchor="start" style="white-space: pre;" direction="ltr" dominant-baseline="text-before-edge">.st_ctime // linux: last meta change</text><text x="0" y="76.8" font-family="Cascadia, Segoe UI Emoji" font-size="16px" fill="#1e1e1e" text-anchor="start" style="white-space: pre;" direction="ltr" dominant-baseline="text-before-edge">          // windows: creation</text><text x="0" y="96" font-family="Cascadia, Segoe UI Emoji" font-size="16px" fill="#1e1e1e" text-anchor="start" style="white-space: pre;" direction="ltr" dominant-baseline="text-before-edge">.st_mtime // modification</text><text x="0" y="115.19999999999999" font-family="Cascadia, Segoe UI Emoji" font-size="16px" fill="#1e1e1e" text-anchor="start" style="white-space: pre;" direction="ltr" dominant-baseline="text-before-edge">          // (last fwrite)</text></g><g stroke-linecap="round" transform="translate(10 270) rotate(0 180 20)"><path d="M0 0 L360 0 L360 40 L0 40" stroke="none" stroke-width="0" fill="#b2f2bb"></path><path d="M0 0 C127.19 0, 254.38 0, 360 0 M0 0 C118.47 0, 236.95 0, 360 0 M360 0 C360 15.54, 360 31.08, 360 40 M360 0 C360 9.28, 360 18.56, 360 40 M360 40 C217.86 40, 75.73 40, 0 40 M360 40 C244.89 40, 129.78 40, 0 40 M0 40 C0 24.19, 0 8.37, 0 0 M0 40 C0 28.33, 0 16.66, 0 0" stroke="#1e1e1e" stroke-width="2" fill="none"></path></g><g transform="translate(90.390625 278) rotate(0 99.609375 12)"><text x="99.609375" y="0" font-family="Cascadia, Segoe UI Emoji" font-size="20px" fill="#1e1e1e" text-anchor="middle" style="white-space: pre;" direction="ltr" dominant-baseline="text-before-edge">os.stat(filepath)</text></g><g stroke-linecap="round" transform="translate(1090 10) rotate(0 140 200)"><path d="M0 0 C76.25 0, 152.5 0, 280 0 M0 0 C62.63 0, 125.26 0, 280 0 M280 0 C280 109.34, 280 218.69, 280 400 M280 0 C280 157.49, 280 314.98, 280 400 M280 400 C215.82 400, 151.64 400, 0 400 M280 400 C203.74 400, 127.49 400, 0 400 M0 400 C0 286.51, 0 173.01, 0 0 M0 400 C0 244.76, 0 89.53, 0 0" stroke="#1e1e1e" stroke-width="2" fill="none"></path></g><g transform="translate(1188.984375 15) rotate(0 41.015625 12)"><text x="41.015625" y="0" font-family="Cascadia, Segoe UI Emoji" font-size="20px" fill="#1e1e1e" text-anchor="middle" style="white-space: pre;" direction="ltr" dominant-baseline="text-before-edge">legend:</text></g><g stroke-linecap="round" transform="translate(1110 50) rotate(0 20 20)"><path d="M0 0 L40 0 L40 40 L0 40" stroke="none" stroke-width="0" fill="#b2f2bb"></path><path d="M0 0 C14.73 0, 29.46 0, 40 0 M0 0 C10.43 0, 20.86 0, 40 0 M40 0 C40 8.78, 40 17.56, 40 40 M40 0 C40 10.84, 40 21.68, 40 40 M40 40 C30.86 40, 21.72 40, 0 40 M40 40 C24.32 40, 8.64 40, 0 40 M0 40 C0 31.16, 0 22.33, 0 0 M0 40 C0 31.55, 0 23.09, 0 0" stroke="#1e1e1e" stroke-width="2" fill="none"></path></g><g transform="translate(1170 50) rotate(0 35.15625 12)"><text x="0" y="0" font-family="Cascadia, Segoe UI Emoji" font-size="20px" fill="#1e1e1e" text-anchor="start" style="white-space: pre;" direction="ltr" dominant-baseline="text-before-edge">python</text></g><g stroke-linecap="round" transform="translate(1110 110) rotate(0 20 20)"><path d="M0 0 L40 0 L40 40 L0 40" stroke="none" stroke-width="0" fill="#e9ecef"></path><path d="M0 0 C10.34 0, 20.67 0, 40 0 M0 0 C13.2 0, 26.39 0, 40 0 M40 0 C40 14.79, 40 29.59, 40 40 M40 0 C40 10.1, 40 20.2, 40 40 M40 40 C30.07 40, 20.14 40, 0 40 M40 40 C25.82 40, 11.65 40, 0 40 M0 40 C0 27.59, 0 15.19, 0 0 M0 40 C0 31.92, 0 23.83, 0 0" stroke="#1e1e1e" stroke-width="2" fill="none"></path></g><g transform="translate(1170 110) rotate(0 29.296875 12)"><text x="0" y="0" font-family="Cascadia, Segoe UI Emoji" font-size="20px" fill="#1e1e1e" text-anchor="start" style="white-space: pre;" direction="ltr" dominant-baseline="text-before-edge">types</text></g><g stroke-linecap="round"><g transform="translate(130 310) rotate(0 0 40)"><path d="M0 0 C0 18.8, 0 37.61, 0 80 M0 0 C0 23.82, 0 47.63, 0 80" stroke="#1e1e1e" stroke-width="2" fill="none"></path></g><g transform="translate(130 310) rotate(0 0 40)"><path d="M0 80 L-6.34 66.41 L6.34 66.41 L0 80" stroke="none" stroke-width="0" fill="#1e1e1e" fill-rule="evenodd"></path><path d="M0 80 C-1.49 76.8, -2.98 73.61, -6.34 66.41 M0 80 C-1.89 75.95, -3.77 71.91, -6.34 66.41 M-6.34 66.41 C-2.59 66.41, 1.15 66.41, 6.34 66.41 M-6.34 66.41 C-2.84 66.41, 0.66 66.41, 6.34 66.41 M6.34 66.41 C4.81 69.69, 3.28 72.97, 0 80 M6.34 66.41 C4.29 70.81, 2.23 75.21, 0 80 M0 80 C0 80, 0 80, 0 80 M0 80 C0 80, 0 80, 0 80" stroke="#1e1e1e" stroke-width="2" fill="none"></path></g></g><mask></mask><g stroke-linecap="round"><g transform="translate(370 410) rotate(0 69.49999999999994 0.0017874331040275138)"><path d="M0 0 C37.14 0, 74.27 0, 139 0 M0 0 C34.1 0, 68.2 0, 139 0" stroke="#1e1e1e" stroke-width="2" fill="none"></path></g><g transform="translate(370 410) rotate(0 69.49999999999994 0.0017874331040275138)"><path d="M139 0 L125.41 6.34 L125.41 -6.34 L139 0" stroke="none" stroke-width="0" fill="#1e1e1e" fill-rule="evenodd"></path><path d="M139 0 C135.37 1.7, 131.74 3.39, 125.41 6.34 M139 0 C135.66 1.56, 132.33 3.11, 125.41 6.34 M125.41 6.34 C125.41 1.86, 125.41 -2.62, 125.41 -6.34 M125.41 6.34 C125.41 1.73, 125.41 -2.88, 125.41 -6.34 M125.41 -6.34 C130.46 -3.98, 135.52 -1.62, 139 0 M125.41 -6.34 C130.25 -4.08, 135.1 -1.82, 139 0 M139 0 C139 0, 139 0, 139 0 M139 0 C139 0, 139 0, 139 0" stroke="#1e1e1e" stroke-width="2" fill="none"></path></g></g><mask></mask><g transform="translate(670 330) rotate(0 79.6875 19.19999999999999)"><text x="0" y="0" font-family="Cascadia, Segoe UI Emoji" font-size="16px" fill="#1e1e1e" text-anchor="start" style="white-space: pre;" direction="ltr" dominant-baseline="text-before-edge">each member is of</text><text x="0" y="19.2" font-family="Cascadia, Segoe UI Emoji" font-size="16px" fill="#1e1e1e" text-anchor="start" style="white-space: pre;" direction="ltr" dominant-baseline="text-before-edge">type epoch</text></g><g stroke-linecap="round" transform="translate(510 390) rotate(0 250 20)"><path d="M0 0 L500 0 L500 40 L0 40" stroke="none" stroke-width="0" fill="#e9ecef"></path><path d="M0 0 C139.08 0, 278.16 0, 500 0 M0 0 C110.34 0, 220.67 0, 500 0 M500 0 C500 12.22, 500 24.45, 500 40 M500 0 C500 8.74, 500 17.48, 500 40 M500 40 C305.03 40, 110.06 40, 0 40 M500 40 C347.62 40, 195.24 40, 0 40 M0 40 C0 25.53, 0 11.06, 0 0 M0 40 C0 31.71, 0 23.42, 0 0" stroke="#1e1e1e" stroke-width="2" fill="none"></path></g><g transform="translate(515 400.4) rotate(0 23.4375 9.600000000000023)"><text x="0" y="0" font-family="Cascadia, Segoe UI Emoji" font-size="16px" fill="#1e1e1e" text-anchor="start" style="white-space: pre;" direction="ltr" dominant-baseline="text-before-edge">epoch</text></g><g stroke-linecap="round" transform="translate(510 270) rotate(0 250 20)"><path d="M0 0 L500 0 L500 40 L0 40" stroke="none" stroke-width="0" fill="#b2f2bb"></path><path d="M0 0 C142.55 0, 285.1 0, 500 0 M0 0 C147.57 0, 295.14 0, 500 0 M500 0 C500 8.73, 500 17.45, 500 40 M500 0 C500 9.42, 500 18.83, 500 40 M500 40 C338.62 40, 177.25 40, 0 40 M500 40 C360.33 40, 220.66 40, 0 40 M0 40 C0 30.33, 0 20.66, 0 0 M0 40 C0 30.05, 0 20.1, 0 0" stroke="#1e1e1e" stroke-width="2" fill="none"></path></g><g transform="translate(731.875 280.4) rotate(0 28.125 9.599999999999994)"><text x="28.125" y="0" font-family="Cascadia, Segoe UI Emoji" font-size="16px" fill="#1e1e1e" text-anchor="middle" style="white-space: pre;" direction="ltr" dominant-baseline="text-before-edge">time()</text></g><g stroke-linecap="round"><g transform="translate(650 310) rotate(0 0 40)"><path d="M0 0 C0 16.35, 0 32.69, 0 80 M0 0 C0 27.16, 0 54.31, 0 80" stroke="#1e1e1e" stroke-width="2" fill="none"></path></g><g transform="translate(650 310) rotate(0 0 40)"><path d="M0 80 L-6.34 66.41 L6.34 66.41 L0 80" stroke="none" stroke-width="0" fill="#1e1e1e" fill-rule="evenodd"></path><path d="M0 80 C-1.3 77.22, -2.59 74.44, -6.34 66.41 M0 80 C-2.15 75.39, -4.3 70.77, -6.34 66.41 M-6.34 66.41 C-1.92 66.41, 2.5 66.41, 6.34 66.41 M-6.34 66.41 C-2.73 66.41, 0.88 66.41, 6.34 66.41 M6.34 66.41 C4.51 70.34, 2.67 74.27, 0 80 M6.34 66.41 C4.24 70.91, 2.14 75.41, 0 80 M0 80 C0 80, 0 80, 0 80 M0 80 C0 80, 0 80, 0 80" stroke="#1e1e1e" stroke-width="2" fill="none"></path></g></g><mask></mask><g stroke-linecap="round" transform="translate(510 550) rotate(0 250 80)"><path d="M0 0 L500 0 L500 160 L0 160" stroke="none" stroke-width="0" fill="#e9ecef"></path><path d="M0 0 C138.62 0, 277.24 0, 500 0 M0 0 C188.77 0, 377.54 0, 500 0 M500 0 C500 36.63, 500 73.25, 500 160 M500 0 C500 63.52, 500 127.04, 500 160 M500 160 C326.17 160, 152.34 160, 0 160 M500 160 C347.03 160, 194.06 160, 0 160 M0 160 C0 109.97, 0 59.94, 0 0 M0 160 C0 108.7, 0 57.4, 0 0" stroke="#1e1e1e" stroke-width="2" fill="none"></path></g><g transform="translate(515 562.8) rotate(0 121.875 67.19999999999999)"><text x="0" y="0" font-family="Cascadia, Segoe UI Emoji" font-size="16px" fill="#1e1e1e" text-anchor="start" style="white-space: pre;" direction="ltr" dominant-baseline="text-before-edge">time.struct_time // python</text><text x="0" y="19.2" font-family="Cascadia, Segoe UI Emoji" font-size="16px" fill="#1e1e1e" text-anchor="start" style="white-space: pre;" direction="ltr" dominant-baseline="text-before-edge">struct tm // c</text><text x="0" y="38.4" font-family="Cascadia, Segoe UI Emoji" font-size="16px" fill="#1e1e1e" text-anchor="start" style="white-space: pre;" direction="ltr" dominant-baseline="text-before-edge"></text><text x="0" y="57.599999999999994" font-family="Cascadia, Segoe UI Emoji" font-size="16px" fill="#1e1e1e" text-anchor="start" style="white-space: pre;" direction="ltr" dominant-baseline="text-before-edge">.tm_year</text><text x="0" y="76.8" font-family="Cascadia, Segoe UI Emoji" font-size="16px" fill="#1e1e1e" text-anchor="start" style="white-space: pre;" direction="ltr" dominant-baseline="text-before-edge">.tm_month</text><text x="0" y="96" font-family="Cascadia, Segoe UI Emoji" font-size="16px" fill="#1e1e1e" text-anchor="start" style="white-space: pre;" direction="ltr" dominant-baseline="text-before-edge">.tm_mday</text><text x="0" y="115.19999999999999" font-family="Cascadia, Segoe UI Emoji" font-size="16px" fill="#1e1e1e" text-anchor="start" style="white-space: pre;" direction="ltr" dominant-baseline="text-before-edge">...</text></g><g stroke-linecap="round"><g transform="translate(530 431) rotate(0 0 59)"><path d="M0 0 C0 35.02, 0 70.04, 0 118 M0 0 C0 43.54, 0 87.07, 0 118" stroke="#1e1e1e" stroke-width="2" fill="none"></path></g><g transform="translate(530 431) rotate(0 0 59)"><path d="M0 118 L-6.34 104.41 L6.34 104.41 L0 118" stroke="none" stroke-width="0" fill="#1e1e1e" fill-rule="evenodd"></path><path d="M0 118 C-1.88 113.97, -3.76 109.93, -6.34 104.41 M0 118 C-2.34 112.98, -4.68 107.97, -6.34 104.41 M-6.34 104.41 C-2.39 104.41, 1.56 104.41, 6.34 104.41 M-6.34 104.41 C-1.72 104.41, 2.9 104.41, 6.34 104.41 M6.34 104.41 C4.02 109.39, 1.69 114.37, 0 118 M6.34 104.41 C4.27 108.83, 2.21 113.26, 0 118 M0 118 C0 118, 0 118, 0 118 M0 118 C0 118, 0 118, 0 118" stroke="#1e1e1e" stroke-width="2" fill="none"></path></g></g><mask></mask><g stroke-linecap="round"><g transform="translate(650 549) rotate(0 0 -59)"><path d="M0 0 C0 -35.15, 0 -70.3, 0 -118 M0 0 C0 -44.27, 0 -88.55, 0 -118" stroke="#1e1e1e" stroke-width="2" fill="none"></path></g><g transform="translate(650 549) rotate(0 0 -59)"><path d="M0 -118 L6.34 -104.41 L-6.34 -104.41 L0 -118" stroke="none" stroke-width="0" fill="#1e1e1e" fill-rule="evenodd"></path><path d="M0 -118 C1.89 -113.95, 3.78 -109.9, 6.34 -104.41 M0 -118 C2.38 -112.9, 4.76 -107.8, 6.34 -104.41 M6.34 -104.41 C1.67 -104.41, -2.99 -104.41, -6.34 -104.41 M6.34 -104.41 C3.44 -104.41, 0.54 -104.41, -6.34 -104.41 M-6.34 -104.41 C-4.76 -107.8, -3.17 -111.19, 0 -118 M-6.34 -104.41 C-4.51 -108.32, -2.69 -112.23, 0 -118 M0 -118 C0 -118, 0 -118, 0 -118 M0 -118 C0 -118, 0 -118, 0 -118" stroke="#1e1e1e" stroke-width="2" fill="none"></path></g></g><mask></mask><g stroke-linecap="round" transform="translate(510 470) rotate(0 60 20)"><path d="M0 0 L120 0 L120 40 L0 40" stroke="none" stroke-width="0" fill="#b2f2bb"></path><path d="M0 0 C28.54 0, 57.08 0, 120 0 M0 0 C27.01 0, 54.03 0, 120 0 M120 0 C120 9.73, 120 19.47, 120 40 M120 0 C120 15.82, 120 31.64, 120 40 M120 40 C91.17 40, 62.35 40, 0 40 M120 40 C74.25 40, 28.5 40, 0 40 M0 40 C0 24.37, 0 8.74, 0 0 M0 40 C0 31.56, 0 23.12, 0 0" stroke="#1e1e1e" stroke-width="2" fill="none"></path></g><g transform="translate(515 480.4) rotate(0 51.5625 9.600000000000023)"><text x="0" y="0" font-family="Cascadia, Segoe UI Emoji" font-size="16px" fill="#1e1e1e" text-anchor="start" style="white-space: pre;" direction="ltr" dominant-baseline="text-before-edge">localtime()</text></g><g stroke-linecap="round" transform="translate(630 470) rotate(0 60 20)"><path d="M0 0 L120 0 L120 40 L0 40" stroke="none" stroke-width="0" fill="#b2f2bb"></path><path d="M0 0 C36.62 0, 73.23 0, 120 0 M0 0 C37.51 0, 75.02 0, 120 0 M120 0 C120 12.51, 120 25.02, 120 40 M120 0 C120 8.36, 120 16.71, 120 40 M120 40 C80.04 40, 40.09 40, 0 40 M120 40 C89.71 40, 59.42 40, 0 40 M0 40 C0 30.55, 0 21.1, 0 0 M0 40 C0 28.26, 0 16.52, 0 0" stroke="#1e1e1e" stroke-width="2" fill="none"></path></g><g transform="translate(635 480.4) rotate(0 37.5 9.600000000000023)"><text x="0" y="0" font-family="Cascadia, Segoe UI Emoji" font-size="16px" fill="#1e1e1e" text-anchor="start" style="white-space: pre;" direction="ltr" dominant-baseline="text-before-edge">mktime()</text></g><g stroke-linecap="round"><g transform="translate(790 431) rotate(0 0 59)"><path d="M0 0 C0 36.98, 0 73.96, 0 118 M0 0 C0 36.73, 0 73.45, 0 118" stroke="#1e1e1e" stroke-width="2" fill="none"></path></g><g transform="translate(790 431) rotate(0 0 59)"><path d="M0 118 L-6.34 104.41 L6.34 104.41 L0 118" stroke="none" stroke-width="0" fill="#1e1e1e" fill-rule="evenodd"></path><path d="M0 118 C-1.99 113.74, -3.97 109.48, -6.34 104.41 M0 118 C-1.97 113.77, -3.95 109.54, -6.34 104.41 M-6.34 104.41 C-2.16 104.41, 2.02 104.41, 6.34 104.41 M-6.34 104.41 C-1.77 104.41, 2.8 104.41, 6.34 104.41 M6.34 104.41 C4.04 109.34, 1.74 114.27, 0 118 M6.34 104.41 C4.24 108.92, 2.13 113.43, 0 118 M0 118 C0 118, 0 118, 0 118 M0 118 C0 118, 0 118, 0 118" stroke="#1e1e1e" stroke-width="2" fill="none"></path></g></g><mask></mask><g stroke-linecap="round" transform="translate(770 470) rotate(0 60 20)"><path d="M0 0 L120 0 L120 40 L0 40" stroke="none" stroke-width="0" fill="#69db7c"></path><path d="M0 0 C38.68 0, 77.36 0, 120 0 M0 0 C32.6 0, 65.2 0, 120 0 M120 0 C120 15.36, 120 30.72, 120 40 M120 0 C120 15.33, 120 30.65, 120 40 M120 40 C93.51 40, 67.01 40, 0 40 M120 40 C79.22 40, 38.43 40, 0 40 M0 40 C0 27.91, 0 15.81, 0 0 M0 40 C0 30.24, 0 20.47, 0 0" stroke="#1e1e1e" stroke-width="2" fill="none"></path></g><g transform="translate(775 480.4) rotate(0 37.5 9.600000000000023)"><text x="0" y="0" font-family="Cascadia, Segoe UI Emoji" font-size="16px" fill="#1e1e1e" text-anchor="start" style="white-space: pre;" direction="ltr" dominant-baseline="text-before-edge">gmtime()</text></g><g stroke-linecap="round"><g transform="translate(910 549) rotate(0 0 -59)"><path d="M0 0 C0 -34.66, 0 -69.32, 0 -118 M0 0 C0 -23.89, 0 -47.78, 0 -118" stroke="#1e1e1e" stroke-width="2" fill="none"></path></g><g transform="translate(910 549) rotate(0 0 -59)"><path d="M0 -118 L6.34 -104.41 L-6.34 -104.41 L0 -118" stroke="none" stroke-width="0" fill="#1e1e1e" fill-rule="evenodd"></path><path d="M0 -118 C1.86 -114.01, 3.72 -110.01, 6.34 -104.41 M0 -118 C1.28 -115.25, 2.57 -112.5, 6.34 -104.41 M6.34 -104.41 C3.32 -104.41, 0.31 -104.41, -6.34 -104.41 M6.34 -104.41 C2.82 -104.41, -0.7 -104.41, -6.34 -104.41 M-6.34 -104.41 C-5.01 -107.26, -3.67 -110.12, 0 -118 M-6.34 -104.41 C-4.64 -108.04, -2.95 -111.67, 0 -118 M0 -118 C0 -118, 0 -118, 0 -118 M0 -118 C0 -118, 0 -118, 0 -118" stroke="#1e1e1e" stroke-width="2" fill="none"></path></g></g><mask></mask><g stroke-linecap="round" transform="translate(890 470) rotate(0 60 20)"><path d="M0 0 L120 0 L120 40 L0 40" stroke="none" stroke-width="0" fill="#69db7c"></path><path d="M0 0 C47.67 0, 95.34 0, 120 0 M0 0 C26.54 0, 53.08 0, 120 0 M120 0 C120 12.66, 120 25.32, 120 40 M120 0 C120 9.03, 120 18.06, 120 40 M120 40 C77.05 40, 34.11 40, 0 40 M120 40 C92.59 40, 65.19 40, 0 40 M0 40 C0 25.82, 0 11.65, 0 0 M0 40 C0 30.84, 0 21.67, 0 0" stroke="#1e1e1e" stroke-width="2" fill="none"></path></g><g transform="translate(895 480.4) rotate(0 37.5 9.600000000000023)"><text x="0" y="0" font-family="Cascadia, Segoe UI Emoji" font-size="16px" fill="#1e1e1e" text-anchor="start" style="white-space: pre;" direction="ltr" dominant-baseline="text-before-edge">timegm()</text></g><g stroke-linecap="round" transform="translate(510 830) rotate(0 250 20)"><path d="M0 0 L500 0 L500 40 L0 40" stroke="none" stroke-width="0" fill="#e9ecef"></path><path d="M0 0 C189.06 0, 378.11 0, 500 0 M0 0 C134.96 0, 269.92 0, 500 0 M500 0 C500 14.77, 500 29.55, 500 40 M500 0 C500 14.67, 500 29.34, 500 40 M500 40 C362 40, 223.99 40, 0 40 M500 40 C362.69 40, 225.37 40, 0 40 M0 40 C0 31.25, 0 22.5, 0 0 M0 40 C0 27.76, 0 15.53, 0 0" stroke="#1e1e1e" stroke-width="2" fill="none"></path></g><g transform="translate(515 840.4) rotate(0 112.5 9.600000000000023)"><text x="0" y="0" font-family="Cascadia, Segoe UI Emoji" font-size="16px" fill="#1e1e1e" text-anchor="start" style="white-space: pre;" direction="ltr" dominant-baseline="text-before-edge">string like "2024-01-02"</text></g><g stroke-linecap="round"><g transform="translate(530 710) rotate(0 0 59.5)"><path d="M0 0 C0 44.74, 0 89.48, 0 119 M0 0 C0 29.76, 0 59.52, 0 119" stroke="#1e1e1e" stroke-width="2" fill="none"></path></g><g transform="translate(530 710) rotate(0 0 59.5)"><path d="M0 119 L-6.34 105.41 L6.34 105.41 L0 119" stroke="none" stroke-width="0" fill="#1e1e1e" fill-rule="evenodd"></path><path d="M0 119 C-2.38 113.89, -4.77 108.78, -6.34 105.41 M0 119 C-1.59 115.6, -3.17 112.2, -6.34 105.41 M-6.34 105.41 C-3.42 105.41, -0.5 105.41, 6.34 105.41 M-6.34 105.41 C-1.44 105.41, 3.46 105.41, 6.34 105.41 M6.34 105.41 C3.82 110.8, 1.3 116.2, 0 119 M6.34 105.41 C3.83 110.78, 1.33 116.15, 0 119 M0 119 C0 119, 0 119, 0 119 M0 119 C0 119, 0 119, 0 119" stroke="#1e1e1e" stroke-width="2" fill="none"></path></g></g><mask></mask><g stroke-linecap="round"><g transform="translate(650 829) rotate(0 0 -59.5)"><path d="M0 0 C0 -33.91, 0 -67.82, 0 -119 M0 0 C0 -33.74, 0 -67.48, 0 -119" stroke="#1e1e1e" stroke-width="2" fill="none"></path></g><g transform="translate(650 829) rotate(0 0 -59.5)"><path d="M0 -119 L6.34 -105.41 L-6.34 -105.41 L0 -119" stroke="none" stroke-width="0" fill="#1e1e1e" fill-rule="evenodd"></path><path d="M0 -119 C1.81 -115.13, 3.61 -111.25, 6.34 -105.41 M0 -119 C1.8 -115.15, 3.59 -111.29, 6.34 -105.41 M6.34 -105.41 C1.83 -105.41, -2.68 -105.41, -6.34 -105.41 M6.34 -105.41 C3.04 -105.41, -0.27 -105.41, -6.34 -105.41 M-6.34 -105.41 C-4.91 -108.47, -3.48 -111.53, 0 -119 M-6.34 -105.41 C-4.28 -109.82, -2.22 -114.24, 0 -119 M0 -119 C0 -119, 0 -119, 0 -119 M0 -119 C0 -119, 0 -119, 0 -119" stroke="#1e1e1e" stroke-width="2" fill="none"></path></g></g><mask></mask><g stroke-linecap="round" transform="translate(510 750) rotate(0 60 20)"><path d="M0 0 L120 0 L120 40 L0 40" stroke="none" stroke-width="0" fill="#b2f2bb"></path><path d="M0 0 C28.16 0, 56.32 0, 120 0 M0 0 C30.47 0, 60.94 0, 120 0 M120 0 C120 11.1, 120 22.19, 120 40 M120 0 C120 14.57, 120 29.14, 120 40 M120 40 C78 40, 35.99 40, 0 40 M120 40 C85.59 40, 51.19 40, 0 40 M0 40 C0 27.21, 0 14.43, 0 0 M0 40 C0 24.88, 0 9.76, 0 0" stroke="#1e1e1e" stroke-width="2" fill="none"></path></g><g transform="translate(515 760.4) rotate(0 46.875 9.600000000000023)"><text x="0" y="0" font-family="Cascadia, Segoe UI Emoji" font-size="16px" fill="#1e1e1e" text-anchor="start" style="white-space: pre;" direction="ltr" dominant-baseline="text-before-edge">strftime()</text></g><g stroke-linecap="round" transform="translate(630 750) rotate(0 60 20)"><path d="M0 0 L120 0 L120 40 L0 40" stroke="none" stroke-width="0" fill="#b2f2bb"></path><path d="M0 0 C46.91 0, 93.82 0, 120 0 M0 0 C32.62 0, 65.25 0, 120 0 M120 0 C120 15.06, 120 30.12, 120 40 M120 0 C120 15.02, 120 30.04, 120 40 M120 40 C92.74 40, 65.48 40, 0 40 M120 40 C80.11 40, 40.22 40, 0 40 M0 40 C0 31.51, 0 23.03, 0 0 M0 40 C0 27.49, 0 14.98, 0 0" stroke="#1e1e1e" stroke-width="2" fill="none"></path></g><g transform="translate(635 760.4) rotate(0 46.875 9.600000000000023)"><text x="0" y="0" font-family="Cascadia, Segoe UI Emoji" font-size="16px" fill="#1e1e1e" text-anchor="start" style="white-space: pre;" direction="ltr" dominant-baseline="text-before-edge">strptime()</text></g><g stroke-linecap="round"><g transform="translate(790 710) rotate(0 0 59.5)"><path d="M0 0 C0 47.4, 0 94.8, 0 119 M0 0 C0 41.54, 0 83.09, 0 119" stroke="#1e1e1e" stroke-width="2" fill="none"></path></g><g transform="translate(790 710) rotate(0 0 59.5)"><path d="M0 119 L-6.34 105.41 L6.34 105.41 L0 119" stroke="none" stroke-width="0" fill="#1e1e1e" fill-rule="evenodd"></path><path d="M0 119 C-2.53 113.58, -5.05 108.17, -6.34 105.41 M0 119 C-2.21 114.25, -4.43 109.51, -6.34 105.41 M-6.34 105.41 C-3.77 105.41, -1.21 105.41, 6.34 105.41 M-6.34 105.41 C-3.71 105.41, -1.09 105.41, 6.34 105.41 M6.34 105.41 C4.44 109.47, 2.54 113.54, 0 119 M6.34 105.41 C3.9 110.64, 1.45 115.88, 0 119 M0 119 C0 119, 0 119, 0 119 M0 119 C0 119, 0 119, 0 119" stroke="#1e1e1e" stroke-width="2" fill="none"></path></g></g><mask></mask><g stroke-linecap="round" transform="translate(770 750) rotate(0 60 20)"><path d="M0 0 L120 0 L120 40 L0 40" stroke="none" stroke-width="0" fill="#69db7c"></path><path d="M0 0 C27.65 0, 55.3 0, 120 0 M0 0 C46.38 0, 92.77 0, 120 0 M120 0 C120 15.88, 120 31.77, 120 40 M120 0 C120 15.81, 120 31.62, 120 40 M120 40 C95.57 40, 71.13 40, 0 40 M120 40 C77.18 40, 34.36 40, 0 40 M0 40 C0 30.41, 0 20.83, 0 0 M0 40 C0 29.21, 0 18.42, 0 0" stroke="#1e1e1e" stroke-width="2" fill="none"></path></g><g transform="translate(775 760.4) rotate(0 42.1875 9.600000000000023)"><text x="0" y="0" font-family="Cascadia, Segoe UI Emoji" font-size="16px" fill="#1e1e1e" text-anchor="start" style="white-space: pre;" direction="ltr" dominant-baseline="text-before-edge">asctime()</text></g><g stroke-linecap="round" transform="translate(1110 170) rotate(0 20 20)"><path d="M0 0 L40 0 L40 40 L0 40" stroke="none" stroke-width="0" fill="#ffc9c9"></path><path d="M0 0 C9.04 0, 18.07 0, 40 0 M0 0 C9.97 0, 19.93 0, 40 0 M40 0 C40 13.56, 40 27.13, 40 40 M40 0 C40 12.61, 40 25.21, 40 40 M40 40 C24.81 40, 9.63 40, 0 40 M40 40 C26.43 40, 12.86 40, 0 40 M0 40 C0 25.84, 0 11.67, 0 0 M0 40 C0 29.56, 0 19.12, 0 0" stroke="#1e1e1e" stroke-width="2" fill="none"></path></g><g transform="translate(1170 170) rotate(0 46.875 12)"><text x="0" y="0" font-family="Cascadia, Segoe UI Emoji" font-size="20px" fill="#1e1e1e" text-anchor="start" style="white-space: pre;" direction="ltr" dominant-baseline="text-before-edge">examples</text></g><g stroke-linecap="round" transform="translate(210 990) rotate(0 250 50)"><path d="M0 0 L500 0 L500 100 L0 100" stroke="none" stroke-width="0" fill="#ffc9c9"></path><path d="M0 0 C140.42 0, 280.83 0, 500 0 M0 0 C188.91 0, 377.82 0, 500 0 M500 0 C500 23.28, 500 46.55, 500 100 M500 0 C500 34.86, 500 69.72, 500 100 M500 100 C372.61 100, 245.21 100, 0 100 M500 100 C399.14 100, 298.27 100, 0 100 M0 100 C0 61.34, 0 22.68, 0 0 M0 100 C0 74.91, 0 49.82, 0 0" stroke="#1e1e1e" stroke-width="2" fill="none"></path></g><g transform="translate(215 1001.5999999999999) rotate(0 271.875 38.39999999999998)"><text x="0" y="0" font-family="Cascadia, Segoe UI Emoji" font-size="16px" fill="#1e1e1e" text-anchor="start" style="white-space: pre;" direction="ltr" dominant-baseline="text-before-edge">def epochToISO8601(epoch: float):</text><text x="0" y="19.2" font-family="Cascadia, Segoe UI Emoji" font-size="16px" fill="#1e1e1e" text-anchor="start" style="white-space: pre;" direction="ltr" dominant-baseline="text-before-edge">	timeStruct = time.localtime(epoch)</text><text x="0" y="38.4" font-family="Cascadia, Segoe UI Emoji" font-size="16px" fill="#1e1e1e" text-anchor="start" style="white-space: pre;" direction="ltr" dominant-baseline="text-before-edge">	timeString = time.strftime('%Y-%m-%d', timeStruct)</text><text x="0" y="57.599999999999994" font-family="Cascadia, Segoe UI Emoji" font-size="16px" fill="#1e1e1e" text-anchor="start" style="white-space: pre;" direction="ltr" dominant-baseline="text-before-edge">	return timeString</text></g><g stroke-linecap="round" transform="translate(210 1110) rotate(0 277 50)"><path d="M0 0 L554 0 L554 100 L0 100" stroke="none" stroke-width="0" fill="#ffc9c9"></path><path d="M0 0 C134.93 0, 269.86 0, 554 0 M0 0 C150.31 0, 300.62 0, 554 0 M554 0 C554 30.15, 554 60.31, 554 100 M554 0 C554 30.14, 554 60.27, 554 100 M554 100 C375.11 100, 196.22 100, 0 100 M554 100 C412.67 100, 271.34 100, 0 100 M0 100 C0 75.06, 0 50.12, 0 0 M0 100 C0 75.23, 0 50.47, 0 0" stroke="#1e1e1e" stroke-width="2" fill="none"></path></g><g transform="translate(215 1121.6) rotate(0 267.1875 38.39999999999998)"><text x="0" y="0" font-family="Cascadia, Segoe UI Emoji" font-size="16px" fill="#1e1e1e" text-anchor="start" style="white-space: pre;" direction="ltr" dominant-baseline="text-before-edge">def ISO8601ToEpoch(isoString: str):</text><text x="0" y="19.2" font-family="Cascadia, Segoe UI Emoji" font-size="16px" fill="#1e1e1e" text-anchor="start" style="white-space: pre;" direction="ltr" dominant-baseline="text-before-edge">	timeStruct = time.strptime(isoString, '%Y-%m-%d')</text><text x="0" y="38.4" font-family="Cascadia, Segoe UI Emoji" font-size="16px" fill="#1e1e1e" text-anchor="start" style="white-space: pre;" direction="ltr" dominant-baseline="text-before-edge">	epoch = time.mktime(timeStruct)</text><text x="0" y="57.599999999999994" font-family="Cascadia, Segoe UI Emoji" font-size="16px" fill="#1e1e1e" text-anchor="start" style="white-space: pre;" direction="ltr" dominant-baseline="text-before-edge">	return epoch</text></g></svg>