<svg version="1.1" xmlns="http://www.w3.org/2000/svg" viewBox="0 0 1340 860" width="1340" height="860">
  <!-- svg-source:excalidraw -->
  
  <defs>
    <style class="style-fonts">
      @font-face {
        font-family: "Virgil";
        src: url("https://file%2B.vscode-resource.vscode-cdn.net/home/andrewl/.vscode/extensions/pomdtr.excalidraw-editor-3.7.4/public//dist/excalidraw-assets/Virgil.woff2");
      }
      @font-face {
        font-family: "Cascadia";
        src: url("https://file%2B.vscode-resource.vscode-cdn.net/home/andrewl/.vscode/extensions/pomdtr.excalidraw-editor-3.7.4/public//dist/excalidraw-assets/Cascadia.woff2");
      }
      @font-face {
        font-family: "Assistant";
        src: url("https://file%2B.vscode-resource.vscode-cdn.net/home/andrewl/.vscode/extensions/pomdtr.excalidraw-editor-3.7.4/public//dist/excalidraw-assets/Assistant-Regular.woff2");
      }
    </style>
    
  </defs>
  <rect x="0" y="0" width="1340" height="860" fill="#ffffff"></rect><g stroke-linecap="round" transform="translate(110 10) rotate(0 120 20)"><path d="M0 0 L240 0 L240 40 L0 40" stroke="none" stroke-width="0" fill="#a5d8ff"></path><path d="M0 0 C67.33 0, 134.66 0, 240 0 M0 0 C72.25 0, 144.51 0, 240 0 M240 0 C240 14.43, 240 28.86, 240 40 M240 0 C240 15.47, 240 30.93, 240 40 M240 40 C166.76 40, 93.53 40, 0 40 M240 40 C169.12 40, 98.24 40, 0 40 M0 40 C0 27.24, 0 14.48, 0 0 M0 40 C0 24.51, 0 9.01, 0 0" stroke="#1e1e1e" stroke-width="2" fill="none"></path></g><g transform="translate(145.625 20.400000000000006) rotate(0 84.375 9.599999999999994)"><text x="84.375" y="0" font-family="Cascadia, Segoe UI Emoji" font-size="16px" fill="#1e1e1e" text-anchor="middle" style="white-space: pre;" direction="ltr" dominant-baseline="text-before-edge">magic (0xdoodfeed)</text></g><g transform="translate(390 10) rotate(0 392.578125 24)"><text x="0" y="0" font-family="Cascadia, Segoe UI Emoji" font-size="20px" fill="#1e1e1e" text-anchor="start" style="white-space: pre;" direction="ltr" dominant-baseline="text-before-edge">mostly redrawn from:</text><text x="0" y="24" font-family="Cascadia, Segoe UI Emoji" font-size="20px" fill="#1e1e1e" text-anchor="start" style="white-space: pre;" direction="ltr" dominant-baseline="text-before-edge">http://www.wowotech.net/device_model/dt-code-file-struct-parse.html</text></g><g stroke-linecap="round" transform="translate(110 50) rotate(0 120 20)"><path d="M0 0 L240 0 L240 40 L0 40" stroke="none" stroke-width="0" fill="#a5d8ff"></path><path d="M0 0 C70.08 0, 140.17 0, 240 0 M0 0 C92.28 0, 184.56 0, 240 0 M240 0 C240 13.77, 240 27.54, 240 40 M240 0 C240 11.88, 240 23.76, 240 40 M240 40 C178.79 40, 117.58 40, 0 40 M240 40 C149.08 40, 58.16 40, 0 40 M0 40 C0 28.07, 0 16.13, 0 0 M0 40 C0 31.14, 0 22.27, 0 0" stroke="#1e1e1e" stroke-width="2" fill="none"></path></g><g transform="translate(187.8125 60.400000000000006) rotate(0 42.1875 9.600000000000009)"><text x="42.1875" y="0" font-family="Cascadia, Segoe UI Emoji" font-size="16px" fill="#1e1e1e" text-anchor="middle" style="white-space: pre;" direction="ltr" dominant-baseline="text-before-edge">totalsize</text></g><g stroke-linecap="round" transform="translate(110 90) rotate(0 120 20)"><path d="M0 0 L240 0 L240 40 L0 40" stroke="none" stroke-width="0" fill="#a5d8ff"></path><path d="M0 0 C78.14 0, 156.27 0, 240 0 M0 0 C61.09 0, 122.17 0, 240 0 M240 0 C240 10.67, 240 21.33, 240 40 M240 0 C240 13.5, 240 27.01, 240 40 M240 40 C183.31 40, 126.63 40, 0 40 M240 40 C144.68 40, 49.35 40, 0 40 M0 40 C0 25.22, 0 10.43, 0 0 M0 40 C0 28.71, 0 17.42, 0 0" stroke="#1e1e1e" stroke-width="2" fill="none"></path></g><g transform="translate(169.0625 100.39999999999998) rotate(0 60.9375 9.599999999999994)"><text x="60.9375" y="0" font-family="Cascadia, Segoe UI Emoji" font-size="16px" fill="#1e1e1e" text-anchor="middle" style="white-space: pre;" direction="ltr" dominant-baseline="text-before-edge">off_dt_struct</text></g><g stroke-linecap="round" transform="translate(110 130) rotate(0 120 20)"><path d="M0 0 L240 0 L240 40 L0 40" stroke="none" stroke-width="0" fill="#a5d8ff"></path><path d="M0 0 C81.03 0, 162.05 0, 240 0 M0 0 C56.69 0, 113.37 0, 240 0 M240 0 C240 15.89, 240 31.77, 240 40 M240 0 C240 14.78, 240 29.57, 240 40 M240 40 C172.26 40, 104.51 40, 0 40 M240 40 C171.97 40, 103.94 40, 0 40 M0 40 C0 29.58, 0 19.15, 0 0 M0 40 C0 28.97, 0 17.95, 0 0" stroke="#1e1e1e" stroke-width="2" fill="none"></path></g><g transform="translate(145.625 140.39999999999998) rotate(0 84.375 9.599999999999994)"><text x="84.375" y="0" font-family="Cascadia, Segoe UI Emoji" font-size="16px" fill="#1e1e1e" text-anchor="middle" style="white-space: pre;" direction="ltr" dominant-baseline="text-before-edge">magic (0xdoodfeed)</text></g><g stroke-linecap="round" transform="translate(110 130) rotate(0 120 20)"><path d="M0 0 L240 0 L240 40 L0 40" stroke="none" stroke-width="0" fill="#a5d8ff"></path><path d="M0 0 C89.14 0, 178.28 0, 240 0 M0 0 C80.21 0, 160.42 0, 240 0 M240 0 C240 9.84, 240 19.68, 240 40 M240 0 C240 11, 240 22, 240 40 M240 40 C171.86 40, 103.71 40, 0 40 M240 40 C156.52 40, 73.04 40, 0 40 M0 40 C0 24.42, 0 8.84, 0 0 M0 40 C0 26.67, 0 13.35, 0 0" stroke="#1e1e1e" stroke-width="2" fill="none"></path></g><g transform="translate(164.375 140.39999999999998) rotate(0 65.625 9.599999999999994)"><text x="65.625" y="0" font-family="Cascadia, Segoe UI Emoji" font-size="16px" fill="#1e1e1e" text-anchor="middle" style="white-space: pre;" direction="ltr" dominant-baseline="text-before-edge">off_dt_strings</text></g><g stroke-linecap="round" transform="translate(110 170) rotate(0 120 20)"><path d="M0 0 L240 0 L240 40 L0 40" stroke="none" stroke-width="0" fill="#a5d8ff"></path><path d="M0 0 C79.95 0, 159.9 0, 240 0 M0 0 C83.5 0, 167.01 0, 240 0 M240 0 C240 9.2, 240 18.39, 240 40 M240 0 C240 9.04, 240 18.07, 240 40 M240 40 C178.6 40, 117.19 40, 0 40 M240 40 C150.9 40, 61.8 40, 0 40 M0 40 C0 30.1, 0 20.2, 0 0 M0 40 C0 31.48, 0 22.96, 0 0" stroke="#1e1e1e" stroke-width="2" fill="none"></path></g><g transform="translate(164.375 180.39999999999998) rotate(0 65.625 9.599999999999994)"><text x="65.625" y="0" font-family="Cascadia, Segoe UI Emoji" font-size="16px" fill="#1e1e1e" text-anchor="middle" style="white-space: pre;" direction="ltr" dominant-baseline="text-before-edge">off_mem_rsvmap</text></g><g stroke-linecap="round" transform="translate(110 210) rotate(0 120 20)"><path d="M0 0 L240 0 L240 40 L0 40" stroke="none" stroke-width="0" fill="#a5d8ff"></path><path d="M0 0 C62.8 0, 125.6 0, 240 0 M0 0 C88.33 0, 176.66 0, 240 0 M240 0 C240 12.35, 240 24.7, 240 40 M240 0 C240 10.54, 240 21.09, 240 40 M240 40 C185.51 40, 131.03 40, 0 40 M240 40 C177.96 40, 115.91 40, 0 40 M0 40 C0 25.17, 0 10.34, 0 0 M0 40 C0 28.68, 0 17.36, 0 0" stroke="#1e1e1e" stroke-width="2" fill="none"></path></g><g transform="translate(197.1875 220.39999999999998) rotate(0 32.8125 9.599999999999994)"><text x="32.8125" y="0" font-family="Cascadia, Segoe UI Emoji" font-size="16px" fill="#1e1e1e" text-anchor="middle" style="white-space: pre;" direction="ltr" dominant-baseline="text-before-edge">version</text></g><g stroke-linecap="round" transform="translate(110 250) rotate(0 120 20)"><path d="M0 0 L240 0 L240 40 L0 40" stroke="none" stroke-width="0" fill="#a5d8ff"></path><path d="M0 0 C52.49 0, 104.98 0, 240 0 M0 0 C74.42 0, 148.85 0, 240 0 M240 0 C240 14.71, 240 29.43, 240 40 M240 0 C240 12.93, 240 25.86, 240 40 M240 40 C148.04 40, 56.08 40, 0 40 M240 40 C186.68 40, 133.35 40, 0 40 M0 40 C0 25.75, 0 11.5, 0 0 M0 40 C0 24.02, 0 8.04, 0 0" stroke="#1e1e1e" stroke-width="2" fill="none"></path></g><g transform="translate(150.3125 260.4) rotate(0 79.6875 9.599999999999994)"><text x="79.6875" y="0" font-family="Cascadia, Segoe UI Emoji" font-size="16px" fill="#1e1e1e" text-anchor="middle" style="white-space: pre;" direction="ltr" dominant-baseline="text-before-edge">last_comp_version</text></g><g stroke-linecap="round" transform="translate(110 290) rotate(0 120 20)"><path d="M0 0 L240 0 L240 40 L0 40" stroke="none" stroke-width="0" fill="#a5d8ff"></path><path d="M0 0 C93.63 0, 187.27 0, 240 0 M0 0 C84.35 0, 168.69 0, 240 0 M240 0 C240 11.81, 240 23.62, 240 40 M240 0 C240 14.64, 240 29.27, 240 40 M240 40 C147.24 40, 54.48 40, 0 40 M240 40 C161.44 40, 82.88 40, 0 40 M0 40 C0 28.28, 0 16.56, 0 0 M0 40 C0 28.36, 0 16.72, 0 0" stroke="#1e1e1e" stroke-width="2" fill="none"></path></g><g transform="translate(159.6875 300.4) rotate(0 70.3125 9.599999999999994)"><text x="70.3125" y="0" font-family="Cascadia, Segoe UI Emoji" font-size="16px" fill="#1e1e1e" text-anchor="middle" style="white-space: pre;" direction="ltr" dominant-baseline="text-before-edge">boot_cpuid_phys</text></g><g stroke-linecap="round" transform="translate(110 330) rotate(0 120 20)"><path d="M0 0 L240 0 L240 40 L0 40" stroke="none" stroke-width="0" fill="#a5d8ff"></path><path d="M0 0 C67.35 0, 134.7 0, 240 0 M0 0 C74.98 0, 149.95 0, 240 0 M240 0 C240 13.83, 240 27.65, 240 40 M240 0 C240 10.47, 240 20.93, 240 40 M240 40 C181.99 40, 123.98 40, 0 40 M240 40 C169.38 40, 98.76 40, 0 40 M0 40 C0 26.58, 0 13.17, 0 0 M0 40 C0 26.88, 0 13.76, 0 0" stroke="#1e1e1e" stroke-width="2" fill="none"></path></g><g transform="translate(145.625 340.4) rotate(0 84.375 9.600000000000023)"><text x="84.375" y="0" font-family="Cascadia, Segoe UI Emoji" font-size="16px" fill="#1e1e1e" text-anchor="middle" style="white-space: pre;" direction="ltr" dominant-baseline="text-before-edge">magic (0xdoodfeed)</text></g><g stroke-linecap="round" transform="translate(110 330) rotate(0 120 20)"><path d="M0 0 L240 0 L240 40 L0 40" stroke="none" stroke-width="0" fill="#e7f5ff"></path><path d="M0 0 C70.77 0, 141.54 0, 240 0 M0 0 C75.19 0, 150.37 0, 240 0 M240 0 C240 10.95, 240 21.9, 240 40 M240 0 C240 15.24, 240 30.48, 240 40 M240 40 C179.16 40, 118.32 40, 0 40 M240 40 C157.61 40, 75.22 40, 0 40 M0 40 C0 26.47, 0 12.93, 0 0 M0 40 C0 24.78, 0 9.56, 0 0" stroke="#1e1e1e" stroke-width="2" fill="none"></path></g><g transform="translate(159.6875 340.4) rotate(0 70.3125 9.600000000000023)"><text x="70.3125" y="0" font-family="Cascadia, Segoe UI Emoji" font-size="16px" fill="#1e1e1e" text-anchor="middle" style="white-space: pre;" direction="ltr" dominant-baseline="text-before-edge">size_dt_strings</text></g><g stroke-linecap="round" transform="translate(110 370) rotate(0 120 20)"><path d="M0 0 L240 0 L240 40 L0 40" stroke="none" stroke-width="0" fill="#e7f5ff"></path><path d="M0 0 C81.02 0, 162.03 0, 240 0 M0 0 C89.85 0, 179.7 0, 240 0 M240 0 C240 13.36, 240 26.73, 240 40 M240 0 C240 15.76, 240 31.53, 240 40 M240 40 C185.63 40, 131.27 40, 0 40 M240 40 C145.26 40, 50.52 40, 0 40 M0 40 C0 29.74, 0 19.49, 0 0 M0 40 C0 31.23, 0 22.47, 0 0" stroke="#1e1e1e" stroke-width="2" fill="none"></path></g><g transform="translate(164.375 380.4) rotate(0 65.625 9.600000000000023)"><text x="65.625" y="0" font-family="Cascadia, Segoe UI Emoji" font-size="16px" fill="#1e1e1e" text-anchor="middle" style="white-space: pre;" direction="ltr" dominant-baseline="text-before-edge">size_dt_struct</text></g><g stroke-linecap="round" transform="translate(110 410) rotate(0 120 20)"><path d="M0 0 L240 0 L240 40 L0 40" stroke="none" stroke-width="0" fill="#ffc9c9"></path><path d="M0 0 C53.54 0, 107.09 0, 240 0 M0 0 C93.82 0, 187.63 0, 240 0 M240 0 C240 15.24, 240 30.48, 240 40 M240 0 C240 10.37, 240 20.74, 240 40 M240 40 C175.99 40, 111.97 40, 0 40 M240 40 C151.65 40, 63.31 40, 0 40 M0 40 C0 31.08, 0 22.15, 0 0 M0 40 C0 26.38, 0 12.76, 0 0" stroke="#1e1e1e" stroke-width="2" fill="none"></path></g><g transform="translate(150.3125 420.4) rotate(0 79.6875 9.600000000000023)"><text x="79.6875" y="0" font-family="Cascadia, Segoe UI Emoji" font-size="16px" fill="#1e1e1e" text-anchor="middle" style="white-space: pre;" direction="ltr" dominant-baseline="text-before-edge">fdt_reserve_entry</text></g><g stroke-linecap="round" transform="translate(110 450) rotate(0 120 100)"><path d="M0 0 L240 0 L240 200 L0 200" stroke="none" stroke-width="0" fill="#b2f2bb"></path><path d="M0 0 C66.87 0, 133.74 0, 240 0 M0 0 C61.33 0, 122.67 0, 240 0 M240 0 C240 79.17, 240 158.35, 240 200 M240 0 C240 48.75, 240 97.49, 240 200 M240 200 C173.02 200, 106.03 200, 0 200 M240 200 C174.99 200, 109.98 200, 0 200 M0 200 C0 147.26, 0 94.53, 0 0 M0 200 C0 122.79, 0 45.59, 0 0" stroke="#1e1e1e" stroke-width="2" fill="none"></path></g><g transform="translate(122.1875 530.8) rotate(0 107.8125 19.19999999999999)"><text x="107.8125" y="0" font-family="Cascadia, Segoe UI Emoji" font-size="16px" fill="#1e1e1e" text-anchor="middle" style="white-space: pre;" direction="ltr" dominant-baseline="text-before-edge">dt_struct</text><text x="107.8125" y="19.2" font-family="Cascadia, Segoe UI Emoji" font-size="16px" fill="#1e1e1e" text-anchor="middle" style="white-space: pre;" direction="ltr" dominant-baseline="text-before-edge">(len: &lt;size_dt_struct&gt;)</text></g><g stroke-linecap="round" transform="translate(110 650) rotate(0 120 40)"><path d="M0 0 L240 0 L240 80 L0 80" stroke="none" stroke-width="0" fill="#d0bfff"></path><path d="M0 0 C58.46 0, 116.93 0, 240 0 M0 0 C83 0, 166.01 0, 240 0 M240 0 C240 18.99, 240 37.98, 240 80 M240 0 C240 28.23, 240 56.46, 240 80 M240 80 C154.85 80, 69.7 80, 0 80 M240 80 C151.35 80, 62.7 80, 0 80 M0 80 C0 62.01, 0 44.01, 0 0 M0 80 C0 59.95, 0 39.9, 0 0" stroke="#1e1e1e" stroke-width="2" fill="none"></path></g><g transform="translate(117.5 670.8) rotate(0 112.5 19.19999999999999)"><text x="112.5" y="0" font-family="Cascadia, Segoe UI Emoji" font-size="16px" fill="#1e1e1e" text-anchor="middle" style="white-space: pre;" direction="ltr" dominant-baseline="text-before-edge">dt_strings</text><text x="112.5" y="19.2" font-family="Cascadia, Segoe UI Emoji" font-size="16px" fill="#1e1e1e" text-anchor="middle" style="white-space: pre;" direction="ltr" dominant-baseline="text-before-edge">(len: &lt;size_dt_strings&gt;)</text></g><g stroke-linecap="round"><g transform="translate(110 190) rotate(0 -30 110)"><path d="M0 0 C-16.85 0, -33.69 0, -60 0 M0 0 C-12.88 0, -25.76 0, -60 0 M-60 0 C-60 66.33, -60 132.66, -60 220 M-60 0 C-60 75.92, -60 151.85, -60 220 M-60 220 C-45.67 220, -31.34 220, 0 220 M-60 220 C-47.72 220, -35.45 220, 0 220" stroke="#1e1e1e" stroke-width="2" fill="none"></path></g><g transform="translate(110 190) rotate(0 -30 110)"><path d="M0 220 L-13.59 226.34 L-13.59 213.66 L0 220" stroke="none" stroke-width="0" fill="#1e1e1e" fill-rule="evenodd"></path><path d="M0 220 C-3.82 221.78, -7.63 223.56, -13.59 226.34 M0 220 C-2.92 221.36, -5.84 222.72, -13.59 226.34 M-13.59 226.34 C-13.59 222.52, -13.59 218.69, -13.59 213.66 M-13.59 226.34 C-13.59 221.96, -13.59 217.59, -13.59 213.66 M-13.59 213.66 C-10.35 215.17, -7.1 216.69, 0 220 M-13.59 213.66 C-10.81 214.96, -8.03 216.25, 0 220 M0 220 C0 220, 0 220, 0 220 M0 220 C0 220, 0 220, 0 220" stroke="#1e1e1e" stroke-width="2" fill="none"></path></g></g><mask></mask><g stroke-linecap="round"><g transform="translate(110 150) rotate(0 -50 250)"><path d="M0 0 C-30.21 0, -60.43 0, -100 0 M0 0 C-20.63 0, -41.27 0, -100 0 M-100 0 C-100 169.71, -100 339.42, -100 500 M-100 0 C-100 163.54, -100 327.09, -100 500 M-100 500 C-78.2 500, -56.39 500, -1 500 M-100 500 C-68.45 500, -36.9 500, -1 500" stroke="#1e1e1e" stroke-width="2" fill="none"></path></g><g transform="translate(110 150) rotate(0 -50 250)"><path d="M-1 500 L-14.59 506.34 L-14.59 493.66 L-1 500" stroke="none" stroke-width="0" fill="#1e1e1e" fill-rule="evenodd"></path><path d="M-1 500 C-5.11 501.92, -9.21 503.83, -14.59 506.34 M-1 500 C-3.81 501.31, -6.61 502.62, -14.59 506.34 M-14.59 506.34 C-14.59 502.04, -14.59 497.73, -14.59 493.66 M-14.59 506.34 C-14.59 502.19, -14.59 498.05, -14.59 493.66 M-14.59 493.66 C-11.6 495.06, -8.61 496.45, -1 500 M-14.59 493.66 C-10.26 495.68, -5.93 497.7, -1 500 M-1 500 C-1 500, -1 500, -1 500 M-1 500 C-1 500, -1 500, -1 500" stroke="#1e1e1e" stroke-width="2" fill="none"></path></g></g><mask></mask><g stroke-linecap="round"><g transform="translate(110 110) rotate(0 -40 170)"><path d="M0 0 C-30.47 0, -60.94 0, -80 0 M0 0 C-31.19 0, -62.39 0, -80 0 M-80 0 C-80 84.83, -80 169.66, -80 340 M-80 0 C-80 130.83, -80 261.65, -80 340 M-80 340 C-62.04 340, -44.08 340, 0 340 M-80 340 C-57.16 340, -34.32 340, 0 340" stroke="#1e1e1e" stroke-width="2" fill="none"></path></g><g transform="translate(110 110) rotate(0 -40 170)"><path d="M0 340 L-13.59 346.34 L-13.59 333.66 L0 340" stroke="none" stroke-width="0" fill="#1e1e1e" fill-rule="evenodd"></path><path d="M0 340 C-5.18 342.41, -10.36 344.83, -13.59 346.34 M0 340 C-5.3 342.47, -10.6 344.94, -13.59 346.34 M-13.59 346.34 C-13.59 343.18, -13.59 340.01, -13.59 333.66 M-13.59 346.34 C-13.59 341.46, -13.59 336.58, -13.59 333.66 M-13.59 333.66 C-10.54 335.08, -7.49 336.51, 0 340 M-13.59 333.66 C-9.71 335.47, -5.83 337.28, 0 340 M0 340 C0 340, 0 340, 0 340 M0 340 C0 340, 0 340, 0 340" stroke="#1e1e1e" stroke-width="2" fill="none"></path></g></g><mask></mask><g stroke-linecap="round" transform="translate(610 250) rotate(0 80 20)"><path d="M0 0 L160 0 L160 40 L0 40" stroke="none" stroke-width="0" fill="#2f9e44"></path><path d="M0 0 C32.95 0, 65.91 0, 160 0 M0 0 C62.99 0, 125.97 0, 160 0 M160 0 C160 11, 160 22, 160 40 M160 0 C160 10.64, 160 21.29, 160 40 M160 40 C126.44 40, 92.89 40, 0 40 M160 40 C98.53 40, 37.06 40, 0 40 M0 40 C0 30.68, 0 21.37, 0 0 M0 40 C0 27.62, 0 15.25, 0 0" stroke="#1e1e1e" stroke-width="2" fill="none"></path></g><g transform="translate(624.375 260.40000000000003) rotate(0 65.625 9.599999999999994)"><text x="65.625" y="0" font-family="Cascadia, Segoe UI Emoji" font-size="16px" fill="#1e1e1e" text-anchor="middle" style="white-space: pre;" direction="ltr" dominant-baseline="text-before-edge">FDT_BEGIN_NODE</text></g><g stroke-linecap="round" transform="translate(770 250) rotate(0 80 20)"><path d="M0 0 L160 0 L160 40 L0 40" stroke="none" stroke-width="0" fill="#69db7c"></path><path d="M0 0 C33.38 0, 66.75 0, 160 0 M0 0 C55.45 0, 110.9 0, 160 0 M160 0 C160 8.75, 160 17.5, 160 40 M160 0 C160 10.15, 160 20.3, 160 40 M160 40 C113.34 40, 66.68 40, 0 40 M160 40 C102.84 40, 45.69 40, 0 40 M0 40 C0 26.45, 0 12.89, 0 0 M0 40 C0 31.56, 0 23.11, 0 0" stroke="#1e1e1e" stroke-width="2" fill="none"></path></g><g transform="translate(789.0625 260.4) rotate(0 60.9375 9.599999999999994)"><text x="60.9375" y="0" font-family="Cascadia, Segoe UI Emoji" font-size="16px" fill="#1e1e1e" text-anchor="middle" style="white-space: pre;" direction="ltr" dominant-baseline="text-before-edge">'\x00' (root)</text></g><g stroke-linecap="round" transform="translate(650 290) rotate(0 80 20)"><path d="M0 0 L160 0 L160 40 L0 40" stroke="none" stroke-width="0" fill="#40c057"></path><path d="M0 0 C34.34 0, 68.67 0, 160 0 M0 0 C61.95 0, 123.9 0, 160 0 M160 0 C160 14.98, 160 29.97, 160 40 M160 0 C160 15.19, 160 30.39, 160 40 M160 40 C104.03 40, 48.07 40, 0 40 M160 40 C100.03 40, 40.06 40, 0 40 M0 40 C0 29.98, 0 19.96, 0 0 M0 40 C0 30.16, 0 20.32, 0 0" stroke="#1e1e1e" stroke-width="2" fill="none"></path></g><g transform="translate(664.375 300.4) rotate(0 65.625 9.599999999999994)"><text x="65.625" y="0" font-family="Cascadia, Segoe UI Emoji" font-size="16px" fill="#1e1e1e" text-anchor="middle" style="white-space: pre;" direction="ltr" dominant-baseline="text-before-edge">FDT_BEGIN_NODE</text></g><g stroke-linecap="round" transform="translate(810 290) rotate(0 80 20)"><path d="M0 0 L160 0 L160 40 L0 40" stroke="none" stroke-width="0" fill="#69db7c"></path><path d="M0 0 C36.4 0, 72.8 0, 160 0 M0 0 C51.27 0, 102.55 0, 160 0 M160 0 C160 15.69, 160 31.38, 160 40 M160 0 C160 15.37, 160 30.74, 160 40 M160 40 C103.24 40, 46.48 40, 0 40 M160 40 C120.12 40, 80.25 40, 0 40 M0 40 C0 25.49, 0 10.99, 0 0 M0 40 C0 29.93, 0 19.86, 0 0" stroke="#1e1e1e" stroke-width="2" fill="none"></path></g><g transform="translate(829.0625 300.4) rotate(0 60.9375 9.599999999999994)"><text x="60.9375" y="0" font-family="Cascadia, Segoe UI Emoji" font-size="16px" fill="#1e1e1e" text-anchor="middle" style="white-space: pre;" direction="ltr" dominant-baseline="text-before-edge">FDT_NODE_NAME</text></g><g stroke-linecap="round" transform="translate(690 330) rotate(0 80 20)"><path d="M0 0 L160 0 L160 40 L0 40" stroke="none" stroke-width="0" fill="#40c057"></path><path d="M0 0 C35.13 0, 70.26 0, 160 0 M0 0 C45.24 0, 90.48 0, 160 0 M160 0 C160 14.59, 160 29.18, 160 40 M160 0 C160 14.96, 160 29.92, 160 40 M160 40 C107.47 40, 54.94 40, 0 40 M160 40 C125.04 40, 90.09 40, 0 40 M0 40 C0 24.13, 0 8.27, 0 0 M0 40 C0 24.18, 0 8.37, 0 0" stroke="#1e1e1e" stroke-width="2" fill="none"></path></g><g transform="translate(732.5 340.4) rotate(0 37.5 9.600000000000023)"><text x="37.5" y="0" font-family="Cascadia, Segoe UI Emoji" font-size="16px" fill="#1e1e1e" text-anchor="middle" style="white-space: pre;" direction="ltr" dominant-baseline="text-before-edge">FDT_PROP</text></g><g stroke-linecap="round" transform="translate(850 330) rotate(0 80 20)"><path d="M0 0 L160 0 L160 40 L0 40" stroke="none" stroke-width="0" fill="#b2f2bb"></path><path d="M0 0 C61.05 0, 122.09 0, 160 0 M0 0 C55.05 0, 110.1 0, 160 0 M160 0 C160 15.89, 160 31.77, 160 40 M160 0 C160 9.43, 160 18.86, 160 40 M160 40 C127.22 40, 94.44 40, 0 40 M160 40 C123.88 40, 87.76 40, 0 40 M0 40 C0 25.85, 0 11.7, 0 0 M0 40 C0 30.78, 0 21.56, 0 0" stroke="#1e1e1e" stroke-width="2" fill="none"></path></g><g transform="translate(901.875 340.4) rotate(0 28.125 9.600000000000023)"><text x="28.125" y="0" font-family="Cascadia, Segoe UI Emoji" font-size="16px" fill="#1e1e1e" text-anchor="middle" style="white-space: pre;" direction="ltr" dominant-baseline="text-before-edge">length</text></g><g stroke-linecap="round" transform="translate(1010 330) rotate(0 80 20)"><path d="M0 0 L160 0 L160 40 L0 40" stroke="none" stroke-width="0" fill="#b2f2bb"></path><path d="M0 0 C55.65 0, 111.29 0, 160 0 M0 0 C38.75 0, 77.5 0, 160 0 M160 0 C160 8.96, 160 17.92, 160 40 M160 0 C160 15.55, 160 31.11, 160 40 M160 40 C99.75 40, 39.5 40, 0 40 M160 40 C120.23 40, 80.46 40, 0 40 M0 40 C0 31.12, 0 22.24, 0 0 M0 40 C0 28.44, 0 16.88, 0 0" stroke="#1e1e1e" stroke-width="2" fill="none"></path></g><g transform="translate(1071.25 340.4) rotate(0 18.75 9.600000000000023)"><text x="18.75" y="0" font-family="Cascadia, Segoe UI Emoji" font-size="16px" fill="#1e1e1e" text-anchor="middle" style="white-space: pre;" direction="ltr" dominant-baseline="text-before-edge">name</text></g><g stroke-linecap="round" transform="translate(1170 330) rotate(0 80 20)"><path d="M0 0 L160 0 L160 40 L0 40" stroke="none" stroke-width="0" fill="#b2f2bb"></path><path d="M0 0 C36.48 0, 72.97 0, 160 0 M0 0 C46.52 0, 93.04 0, 160 0 M160 0 C160 8.62, 160 17.25, 160 40 M160 0 C160 14.91, 160 29.82, 160 40 M160 40 C119.9 40, 79.81 40, 0 40 M160 40 C117.88 40, 75.77 40, 0 40 M0 40 C0 27.97, 0 15.94, 0 0 M0 40 C0 25.59, 0 11.19, 0 0" stroke="#1e1e1e" stroke-width="2" fill="none"></path></g><g transform="translate(1231.25 340.4) rotate(0 18.75 9.600000000000023)"><text x="18.75" y="0" font-family="Cascadia, Segoe UI Emoji" font-size="16px" fill="#1e1e1e" text-anchor="middle" style="white-space: pre;" direction="ltr" dominant-baseline="text-before-edge">data</text></g><g stroke-linecap="round" transform="translate(690 370) rotate(0 80 20)"><path d="M0 0 L160 0 L160 40 L0 40" stroke="none" stroke-width="0" fill="#2f9e44"></path><path d="M0 0 C44.42 0, 88.84 0, 160 0 M0 0 C63.04 0, 126.09 0, 160 0 M160 0 C160 12.26, 160 24.52, 160 40 M160 0 C160 12.03, 160 24.06, 160 40 M160 40 C101.17 40, 42.33 40, 0 40 M160 40 C108.51 40, 57.01 40, 0 40 M0 40 C0 24.09, 0 8.18, 0 0 M0 40 C0 24.55, 0 9.1, 0 0" stroke="#1e1e1e" stroke-width="2" fill="none"></path></g><g transform="translate(732.5 380.4) rotate(0 37.5 9.600000000000023)"><text x="37.5" y="0" font-family="Cascadia, Segoe UI Emoji" font-size="16px" fill="#1e1e1e" text-anchor="middle" style="white-space: pre;" direction="ltr" dominant-baseline="text-before-edge">FDT_PROP</text></g><g stroke-linecap="round" transform="translate(850 370) rotate(0 80 20)"><path d="M0 0 L160 0 L160 40 L0 40" stroke="none" stroke-width="0" fill="#69db7c"></path><path d="M0 0 C45.19 0, 90.39 0, 160 0 M0 0 C40.24 0, 80.48 0, 160 0 M160 0 C160 11.14, 160 22.29, 160 40 M160 0 C160 12.48, 160 24.96, 160 40 M160 40 C99.06 40, 38.12 40, 0 40 M160 40 C106.95 40, 53.91 40, 0 40 M0 40 C0 24.47, 0 8.93, 0 0 M0 40 C0 24.92, 0 9.85, 0 0" stroke="#1e1e1e" stroke-width="2" fill="none"></path></g><g transform="translate(901.875 380.4) rotate(0 28.125 9.600000000000023)"><text x="28.125" y="0" font-family="Cascadia, Segoe UI Emoji" font-size="16px" fill="#1e1e1e" text-anchor="middle" style="white-space: pre;" direction="ltr" dominant-baseline="text-before-edge">length</text></g><g stroke-linecap="round" transform="translate(1010 370) rotate(0 80 20)"><path d="M0 0 L160 0 L160 40 L0 40" stroke="none" stroke-width="0" fill="#69db7c"></path><path d="M0 0 C48.98 0, 97.96 0, 160 0 M0 0 C55.24 0, 110.48 0, 160 0 M160 0 C160 15.12, 160 30.25, 160 40 M160 0 C160 12.53, 160 25.06, 160 40 M160 40 C111.19 40, 62.38 40, 0 40 M160 40 C126.35 40, 92.7 40, 0 40 M0 40 C0 26.06, 0 12.12, 0 0 M0 40 C0 30.38, 0 20.75, 0 0" stroke="#1e1e1e" stroke-width="2" fill="none"></path></g><g transform="translate(1071.25 380.4) rotate(0 18.75 9.600000000000023)"><text x="18.75" y="0" font-family="Cascadia, Segoe UI Emoji" font-size="16px" fill="#1e1e1e" text-anchor="middle" style="white-space: pre;" direction="ltr" dominant-baseline="text-before-edge">name</text></g><g stroke-linecap="round" transform="translate(1170 370) rotate(0 80 20)"><path d="M0 0 L160 0 L160 40 L0 40" stroke="none" stroke-width="0" fill="#69db7c"></path><path d="M0 0 C51.03 0, 102.05 0, 160 0 M0 0 C60.79 0, 121.58 0, 160 0 M160 0 C160 9.01, 160 18.03, 160 40 M160 0 C160 14.38, 160 28.75, 160 40 M160 40 C126.31 40, 92.62 40, 0 40 M160 40 C101.95 40, 43.89 40, 0 40 M0 40 C0 24.05, 0 8.11, 0 0 M0 40 C0 26.72, 0 13.45, 0 0" stroke="#1e1e1e" stroke-width="2" fill="none"></path></g><g transform="translate(1231.25 380.4) rotate(0 18.75 9.600000000000023)"><text x="18.75" y="0" font-family="Cascadia, Segoe UI Emoji" font-size="16px" fill="#1e1e1e" text-anchor="middle" style="white-space: pre;" direction="ltr" dominant-baseline="text-before-edge">data</text></g><g stroke-linecap="round" transform="translate(690 370) rotate(0 80 20)"><path d="M0 0 L160 0 L160 40 L0 40" stroke="none" stroke-width="0" fill="#40c057"></path><path d="M0 0 C54.16 0, 108.33 0, 160 0 M0 0 C57.02 0, 114.05 0, 160 0 M160 0 C160 15.72, 160 31.44, 160 40 M160 0 C160 10.5, 160 21, 160 40 M160 40 C96.74 40, 33.48 40, 0 40 M160 40 C101.39 40, 42.78 40, 0 40 M0 40 C0 26.01, 0 12.03, 0 0 M0 40 C0 26.07, 0 12.14, 0 0" stroke="#1e1e1e" stroke-width="2" fill="none"></path></g><g transform="translate(732.5 380.4) rotate(0 37.5 9.600000000000023)"><text x="37.5" y="0" font-family="Cascadia, Segoe UI Emoji" font-size="16px" fill="#1e1e1e" text-anchor="middle" style="white-space: pre;" direction="ltr" dominant-baseline="text-before-edge">FDT_PROP</text></g><g stroke-linecap="round" transform="translate(850 370) rotate(0 80 20)"><path d="M0 0 L160 0 L160 40 L0 40" stroke="none" stroke-width="0" fill="#b2f2bb"></path><path d="M0 0 C55.53 0, 111.05 0, 160 0 M0 0 C55.77 0, 111.54 0, 160 0 M160 0 C160 11.02, 160 22.04, 160 40 M160 0 C160 10.02, 160 20.03, 160 40 M160 40 C120.52 40, 81.04 40, 0 40 M160 40 C122.19 40, 84.38 40, 0 40 M0 40 C0 31.91, 0 23.81, 0 0 M0 40 C0 30.04, 0 20.07, 0 0" stroke="#1e1e1e" stroke-width="2" fill="none"></path></g><g transform="translate(901.875 380.4) rotate(0 28.125 9.600000000000023)"><text x="28.125" y="0" font-family="Cascadia, Segoe UI Emoji" font-size="16px" fill="#1e1e1e" text-anchor="middle" style="white-space: pre;" direction="ltr" dominant-baseline="text-before-edge">length</text></g><g stroke-linecap="round" transform="translate(1010 370) rotate(0 80 20)"><path d="M0 0 L160 0 L160 40 L0 40" stroke="none" stroke-width="0" fill="#b2f2bb"></path><path d="M0 0 C60.19 0, 120.38 0, 160 0 M0 0 C53.4 0, 106.8 0, 160 0 M160 0 C160 9.3, 160 18.6, 160 40 M160 0 C160 12.6, 160 25.19, 160 40 M160 40 C103.75 40, 47.51 40, 0 40 M160 40 C105.35 40, 50.7 40, 0 40 M0 40 C0 31.51, 0 23.01, 0 0 M0 40 C0 31.24, 0 22.49, 0 0" stroke="#1e1e1e" stroke-width="2" fill="none"></path></g><g transform="translate(1071.25 380.4) rotate(0 18.75 9.600000000000023)"><text x="18.75" y="0" font-family="Cascadia, Segoe UI Emoji" font-size="16px" fill="#1e1e1e" text-anchor="middle" style="white-space: pre;" direction="ltr" dominant-baseline="text-before-edge">name</text></g><g stroke-linecap="round" transform="translate(1170 370) rotate(0 80 20)"><path d="M0 0 L160 0 L160 40 L0 40" stroke="none" stroke-width="0" fill="#b2f2bb"></path><path d="M0 0 C52.9 0, 105.8 0, 160 0 M0 0 C53.17 0, 106.34 0, 160 0 M160 0 C160 12.75, 160 25.5, 160 40 M160 0 C160 13.06, 160 26.12, 160 40 M160 40 C109.68 40, 59.37 40, 0 40 M160 40 C127.63 40, 95.25 40, 0 40 M0 40 C0 26.62, 0 13.25, 0 0 M0 40 C0 30.89, 0 21.78, 0 0" stroke="#1e1e1e" stroke-width="2" fill="none"></path></g><g transform="translate(1231.25 380.4) rotate(0 18.75 9.600000000000023)"><text x="18.75" y="0" font-family="Cascadia, Segoe UI Emoji" font-size="16px" fill="#1e1e1e" text-anchor="middle" style="white-space: pre;" direction="ltr" dominant-baseline="text-before-edge">data</text></g><g stroke-linecap="round" transform="translate(690 450) rotate(0 80 20)"><path d="M0 0 L160 0 L160 40 L0 40" stroke="none" stroke-width="0" fill="#40c057"></path><path d="M0 0 C52.23 0, 104.46 0, 160 0 M0 0 C50.32 0, 100.63 0, 160 0 M160 0 C160 8.09, 160 16.19, 160 40 M160 0 C160 13.38, 160 26.75, 160 40 M160 40 C123.56 40, 87.11 40, 0 40 M160 40 C115.78 40, 71.57 40, 0 40 M0 40 C0 28.43, 0 16.86, 0 0 M0 40 C0 27.22, 0 14.44, 0 0" stroke="#1e1e1e" stroke-width="2" fill="none"></path></g><g transform="translate(732.5 460.4) rotate(0 37.5 9.600000000000023)"><text x="37.5" y="0" font-family="Cascadia, Segoe UI Emoji" font-size="16px" fill="#1e1e1e" text-anchor="middle" style="white-space: pre;" direction="ltr" dominant-baseline="text-before-edge">FDT_PROP</text></g><g stroke-linecap="round" transform="translate(850 450) rotate(0 80 20)"><path d="M0 0 L160 0 L160 40 L0 40" stroke="none" stroke-width="0" fill="#b2f2bb"></path><path d="M0 0 C40.83 0, 81.67 0, 160 0 M0 0 C38.43 0, 76.87 0, 160 0 M160 0 C160 9.56, 160 19.12, 160 40 M160 0 C160 8.93, 160 17.85, 160 40 M160 40 C104.62 40, 49.25 40, 0 40 M160 40 C116.31 40, 72.62 40, 0 40 M0 40 C0 26.98, 0 13.95, 0 0 M0 40 C0 27.74, 0 15.47, 0 0" stroke="#1e1e1e" stroke-width="2" fill="none"></path></g><g transform="translate(901.875 460.4) rotate(0 28.125 9.600000000000023)"><text x="28.125" y="0" font-family="Cascadia, Segoe UI Emoji" font-size="16px" fill="#1e1e1e" text-anchor="middle" style="white-space: pre;" direction="ltr" dominant-baseline="text-before-edge">length</text></g><g stroke-linecap="round" transform="translate(1010 450) rotate(0 80 20)"><path d="M0 0 L160 0 L160 40 L0 40" stroke="none" stroke-width="0" fill="#b2f2bb"></path><path d="M0 0 C59.45 0, 118.89 0, 160 0 M0 0 C53.35 0, 106.71 0, 160 0 M160 0 C160 14.87, 160 29.74, 160 40 M160 0 C160 9.33, 160 18.67, 160 40 M160 40 C104.93 40, 49.85 40, 0 40 M160 40 C116.78 40, 73.57 40, 0 40 M0 40 C0 27.99, 0 15.97, 0 0 M0 40 C0 28.09, 0 16.17, 0 0" stroke="#1e1e1e" stroke-width="2" fill="none"></path></g><g transform="translate(1071.25 460.4) rotate(0 18.75 9.600000000000023)"><text x="18.75" y="0" font-family="Cascadia, Segoe UI Emoji" font-size="16px" fill="#1e1e1e" text-anchor="middle" style="white-space: pre;" direction="ltr" dominant-baseline="text-before-edge">name</text></g><g stroke-linecap="round" transform="translate(1170 450) rotate(0 80 20)"><path d="M0 0 L160 0 L160 40 L0 40" stroke="none" stroke-width="0" fill="#b2f2bb"></path><path d="M0 0 C39.32 0, 78.65 0, 160 0 M0 0 C47.83 0, 95.65 0, 160 0 M160 0 C160 8.84, 160 17.69, 160 40 M160 0 C160 8.78, 160 17.57, 160 40 M160 40 C113.22 40, 66.44 40, 0 40 M160 40 C116.46 40, 72.91 40, 0 40 M0 40 C0 26.65, 0 13.3, 0 0 M0 40 C0 30.08, 0 20.15, 0 0" stroke="#1e1e1e" stroke-width="2" fill="none"></path></g><g transform="translate(1231.25 460.4) rotate(0 18.75 9.600000000000023)"><text x="18.75" y="0" font-family="Cascadia, Segoe UI Emoji" font-size="16px" fill="#1e1e1e" text-anchor="middle" style="white-space: pre;" direction="ltr" dominant-baseline="text-before-edge">data</text></g><g stroke-linecap="round" transform="translate(650 490) rotate(0 80 20)"><path d="M0 0 L160 0 L160 40 L0 40" stroke="none" stroke-width="0" fill="#40c057"></path><path d="M0 0 C33.61 0, 67.22 0, 160 0 M0 0 C55.64 0, 111.27 0, 160 0 M160 0 C160 12.57, 160 25.14, 160 40 M160 0 C160 13.88, 160 27.77, 160 40 M160 40 C97.15 40, 34.3 40, 0 40 M160 40 C113.17 40, 66.34 40, 0 40 M0 40 C0 28.01, 0 16.01, 0 0 M0 40 C0 31.41, 0 22.82, 0 0" stroke="#1e1e1e" stroke-width="2" fill="none"></path></g><g transform="translate(673.75 500.4) rotate(0 56.25 9.600000000000023)"><text x="56.25" y="0" font-family="Cascadia, Segoe UI Emoji" font-size="16px" fill="#1e1e1e" text-anchor="middle" style="white-space: pre;" direction="ltr" dominant-baseline="text-before-edge">FDT_END_NODE</text></g><g stroke-linecap="round" transform="translate(690 410) rotate(0 320 20)"><path d="M0 0 C136.9 0, 273.8 0, 640 0 M0 0 C218.68 0, 437.35 0, 640 0 M640 0 C640 10.96, 640 21.92, 640 40 M640 0 C640 14.32, 640 28.64, 640 40 M640 40 C395.7 40, 151.4 40, 0 40 M640 40 C429.01 40, 218.03 40, 0 40 M0 40 C0 29.56, 0 19.12, 0 0 M0 40 C0 24.07, 0 8.15, 0 0" stroke="#1e1e1e" stroke-width="2" fill="none"></path></g><g transform="translate(897.5 420.4) rotate(0 112.5 9.600000000000023)"><text x="112.5" y="0" font-family="Cascadia, Segoe UI Emoji" font-size="16px" fill="#1e1e1e" text-anchor="middle" style="white-space: pre;" direction="ltr" dominant-baseline="text-before-edge">... other properties ...</text></g><g stroke-linecap="round" transform="translate(650 530) rotate(0 340 60)"><path d="M0 0 C231.34 0, 462.68 0, 680 0 M0 0 C190.92 0, 381.84 0, 680 0 M680 0 C680 35.07, 680 70.15, 680 120 M680 0 C680 39.95, 680 79.9, 680 120 M680 120 C454.61 120, 229.23 120, 0 120 M680 120 C431.48 120, 182.97 120, 0 120 M0 120 C0 87.83, 0 55.67, 0 0 M0 120 C0 77.71, 0 35.42, 0 0" stroke="#1e1e1e" stroke-width="2" fill="none"></path></g><g transform="translate(858.75 580.4) rotate(0 131.25 9.600000000000023)"><text x="131.25" y="0" font-family="Cascadia, Segoe UI Emoji" font-size="16px" fill="#1e1e1e" text-anchor="middle" style="white-space: pre;" direction="ltr" dominant-baseline="text-before-edge">... other internal nodes ...</text></g><g stroke-linecap="round" transform="translate(610 650) rotate(0 80 20)"><path d="M0 0 L160 0 L160 40 L0 40" stroke="none" stroke-width="0" fill="#40c057"></path><path d="M0 0 C55.62 0, 111.24 0, 160 0 M0 0 C33.27 0, 66.54 0, 160 0 M160 0 C160 13.21, 160 26.42, 160 40 M160 0 C160 13.9, 160 27.8, 160 40 M160 40 C121.95 40, 83.89 40, 0 40 M160 40 C107.61 40, 55.23 40, 0 40 M0 40 C0 29.23, 0 18.45, 0 0 M0 40 C0 31.43, 0 22.85, 0 0" stroke="#1e1e1e" stroke-width="2" fill="none"></path></g><g transform="translate(624.375 660.4) rotate(0 65.625 9.600000000000023)"><text x="65.625" y="0" font-family="Cascadia, Segoe UI Emoji" font-size="16px" fill="#1e1e1e" text-anchor="middle" style="white-space: pre;" direction="ltr" dominant-baseline="text-before-edge">FDT_BEGIN_NODE</text></g><g stroke-linecap="round" transform="translate(610 690) rotate(0 80 20)"><path d="M0 0 L160 0 L160 40 L0 40" stroke="none" stroke-width="0" fill="#2f9e44"></path><path d="M0 0 C54.31 0, 108.63 0, 160 0 M0 0 C56.63 0, 113.27 0, 160 0 M160 0 C160 8.87, 160 17.74, 160 40 M160 0 C160 13.47, 160 26.94, 160 40 M160 40 C119.11 40, 78.22 40, 0 40 M160 40 C110.64 40, 61.28 40, 0 40 M0 40 C0 28.41, 0 16.81, 0 0 M0 40 C0 28.57, 0 17.15, 0 0" stroke="#1e1e1e" stroke-width="2" fill="none"></path></g><g transform="translate(657.1875 700.4) rotate(0 32.8125 9.600000000000023)"><text x="32.8125" y="0" font-family="Cascadia, Segoe UI Emoji" font-size="16px" fill="#1e1e1e" text-anchor="middle" style="white-space: pre;" direction="ltr" dominant-baseline="text-before-edge">FDT_END</text></g><g stroke-linecap="round"><g transform="translate(350 450) rotate(0 130 -100)"><path d="M0 0 C74.32 -57.17, 148.65 -114.34, 260 -200" stroke="#1e1e1e" stroke-width="1.5" fill="none" stroke-dasharray="8 9"></path></g></g><mask></mask><g stroke-linecap="round"><g transform="translate(350 650) rotate(0 130 40)"><path d="M0 0 C75.79 23.32, 151.58 46.64, 260 80" stroke="#1e1e1e" stroke-width="1.5" fill="none" stroke-dasharray="8 9"></path></g></g><mask></mask><g stroke-linecap="round"><g transform="translate(350 410) rotate(0 130 -120)"><path d="M0 0 C83.37 -76.96, 166.74 -153.92, 260 -240" stroke="#1e1e1e" stroke-width="1.5" fill="none" stroke-dasharray="8 9"></path></g></g><mask></mask><g stroke-linecap="round" transform="translate(610 170) rotate(0 80 20)"><path d="M0 0 L160 0 L160 40 L0 40" stroke="none" stroke-width="0" fill="#ffc9c9"></path><path d="M0 0 C42.44 0, 84.87 0, 160 0 M0 0 C61.57 0, 123.14 0, 160 0 M160 0 C160 13.01, 160 26.01, 160 40 M160 0 C160 9.63, 160 19.27, 160 40 M160 40 C118.2 40, 76.4 40, 0 40 M160 40 C117.89 40, 75.78 40, 0 40 M0 40 C0 26.65, 0 13.29, 0 0 M0 40 C0 24.97, 0 9.93, 0 0" stroke="#1e1e1e" stroke-width="2" fill="none"></path></g><g transform="translate(657.1875 180.40000000000003) rotate(0 32.8125 9.599999999999994)"><text x="32.8125" y="0" font-family="Cascadia, Segoe UI Emoji" font-size="16px" fill="#1e1e1e" text-anchor="middle" style="white-space: pre;" direction="ltr" dominant-baseline="text-before-edge">address</text></g><g stroke-linecap="round" transform="translate(610 210) rotate(0 80 20)"><path d="M0 0 L160 0 L160 40 L0 40" stroke="none" stroke-width="0" fill="#ffc9c9"></path><path d="M0 0 C36.69 0, 73.39 0, 160 0 M0 0 C45.56 0, 91.12 0, 160 0 M160 0 C160 8.09, 160 16.19, 160 40 M160 0 C160 8.01, 160 16.02, 160 40 M160 40 C111.2 40, 62.4 40, 0 40 M160 40 C115.75 40, 71.49 40, 0 40 M0 40 C0 28.55, 0 17.1, 0 0 M0 40 C0 30.79, 0 21.58, 0 0" stroke="#1e1e1e" stroke-width="2" fill="none"></path></g><g transform="translate(671.25 220.40000000000003) rotate(0 18.75 9.599999999999994)"><text x="18.75" y="0" font-family="Cascadia, Segoe UI Emoji" font-size="16px" fill="#1e1e1e" text-anchor="middle" style="white-space: pre;" direction="ltr" dominant-baseline="text-before-edge">size</text></g><g stroke-linecap="round"><g transform="translate(350 730) rotate(0 130 60)"><path d="M0 0 C82.84 38.23, 165.68 76.47, 260 120" stroke="#1e1e1e" stroke-width="1.5" fill="none" stroke-dasharray="8 9"></path></g></g><mask></mask><g stroke-linecap="round" transform="translate(610 730) rotate(0 100 20)"><path d="M0 0 L200 0 L200 40 L0 40" stroke="none" stroke-width="0" fill="#d0bfff"></path><path d="M0 0 C76.46 0, 152.93 0, 200 0 M0 0 C45.99 0, 91.97 0, 200 0 M200 0 C200 9.49, 200 18.99, 200 40 M200 0 C200 12.11, 200 24.22, 200 40 M200 40 C153.84 40, 107.69 40, 0 40 M200 40 C133.48 40, 66.95 40, 0 40 M0 40 C0 29.33, 0 18.66, 0 0 M0 40 C0 28, 0 16, 0 0" stroke="#1e1e1e" stroke-width="2" fill="none"></path></g><g transform="translate(639.6875 740.4) rotate(0 70.3125 9.600000000000023)"><text x="70.3125" y="0" font-family="Cascadia, Segoe UI Emoji" font-size="16px" fill="#1e1e1e" text-anchor="middle" style="white-space: pre;" direction="ltr" dominant-baseline="text-before-edge">"description\0"</text></g><g stroke-linecap="round" transform="translate(810 730) rotate(0 100 20)"><path d="M0 0 L200 0 L200 40 L0 40" stroke="none" stroke-width="0" fill="#d0bfff"></path><path d="M0 0 C64.39 0, 128.79 0, 200 0 M0 0 C70.89 0, 141.78 0, 200 0 M200 0 C200 14.29, 200 28.58, 200 40 M200 0 C200 13.15, 200 26.31, 200 40 M200 40 C123.74 40, 47.49 40, 0 40 M200 40 C128.6 40, 57.19 40, 0 40 M0 40 C0 29.83, 0 19.66, 0 0 M0 40 C0 25.48, 0 10.95, 0 0" stroke="#1e1e1e" stroke-width="2" fill="none"></path></g><g transform="translate(825.625 740.4) rotate(0 84.375 9.600000000000023)"><text x="84.375" y="0" font-family="Cascadia, Segoe UI Emoji" font-size="16px" fill="#1e1e1e" text-anchor="middle" style="white-space: pre;" direction="ltr" dominant-baseline="text-before-edge">"#address-cells\0"</text></g><g stroke-linecap="round" transform="translate(1010 730) rotate(0 80 20)"><path d="M0 0 L160 0 L160 40 L0 40" stroke="none" stroke-width="0" fill="#d0bfff"></path><path d="M0 0 C55.98 0, 111.96 0, 160 0 M0 0 C54.62 0, 109.25 0, 160 0 M160 0 C160 9.45, 160 18.91, 160 40 M160 0 C160 12.37, 160 24.73, 160 40 M160 40 C110.42 40, 60.84 40, 0 40 M160 40 C102.82 40, 45.65 40, 0 40 M0 40 C0 24.77, 0 9.53, 0 0 M0 40 C0 29.6, 0 19.2, 0 0" stroke="#1e1e1e" stroke-width="2" fill="none"></path></g><g transform="translate(1019.6875 740.4) rotate(0 70.3125 9.600000000000023)"><text x="70.3125" y="0" font-family="Cascadia, Segoe UI Emoji" font-size="16px" fill="#1e1e1e" text-anchor="middle" style="white-space: pre;" direction="ltr" dominant-baseline="text-before-edge">"#size-cells\0"</text></g><g stroke-linecap="round" transform="translate(1170 730) rotate(0 50 20)"><path d="M0 0 L100 0 L100 40 L0 40" stroke="none" stroke-width="0" fill="#d0bfff"></path><path d="M0 0 C33.41 0, 66.83 0, 100 0 M0 0 C27.93 0, 55.85 0, 100 0 M100 0 C100 10.96, 100 21.92, 100 40 M100 0 C100 14.94, 100 29.88, 100 40 M100 40 C72.56 40, 45.11 40, 0 40 M100 40 C69.63 40, 39.25 40, 0 40 M0 40 C0 25.13, 0 10.26, 0 0 M0 40 C0 28.03, 0 16.06, 0 0" stroke="#1e1e1e" stroke-width="2" fill="none"></path></g><g transform="translate(1182.5 740.4) rotate(0 37.5 9.600000000000023)"><text x="37.5" y="0" font-family="Cascadia, Segoe UI Emoji" font-size="16px" fill="#1e1e1e" text-anchor="middle" style="white-space: pre;" direction="ltr" dominant-baseline="text-before-edge">"data\0"</text></g><g stroke-linecap="round" transform="translate(610 770) rotate(0 50 20)"><path d="M0 0 L100 0 L100 40 L0 40" stroke="none" stroke-width="0" fill="#d0bfff"></path><path d="M0 0 C29.95 0, 59.9 0, 100 0 M0 0 C22.99 0, 45.99 0, 100 0 M100 0 C100 11.59, 100 23.19, 100 40 M100 0 C100 14.53, 100 29.07, 100 40 M100 40 C62.3 40, 24.6 40, 0 40 M100 40 C78.48 40, 56.95 40, 0 40 M0 40 C0 29.6, 0 19.2, 0 0 M0 40 C0 25.91, 0 11.82, 0 0" stroke="#1e1e1e" stroke-width="2" fill="none"></path></g><g transform="translate(622.5 780.4) rotate(0 37.5 9.600000000000023)"><text x="37.5" y="0" font-family="Cascadia, Segoe UI Emoji" font-size="16px" fill="#1e1e1e" text-anchor="middle" style="white-space: pre;" direction="ltr" dominant-baseline="text-before-edge">"type\0"</text></g><g stroke-linecap="round" transform="translate(710 770) rotate(0 50 20)"><path d="M0 0 L100 0 L100 40 L0 40" stroke="none" stroke-width="0" fill="#d0bfff"></path><path d="M0 0 C35.31 0, 70.62 0, 100 0 M0 0 C24.1 0, 48.2 0, 100 0 M100 0 C100 13.07, 100 26.13, 100 40 M100 0 C100 8.11, 100 16.23, 100 40 M100 40 C68.72 40, 37.44 40, 0 40 M100 40 C73.57 40, 47.14 40, 0 40 M0 40 C0 29.33, 0 18.65, 0 0 M0 40 C0 30.57, 0 21.15, 0 0" stroke="#1e1e1e" stroke-width="2" fill="none"></path></g><g transform="translate(722.5 780.4) rotate(0 37.5 9.600000000000023)"><text x="37.5" y="0" font-family="Cascadia, Segoe UI Emoji" font-size="16px" fill="#1e1e1e" text-anchor="middle" style="white-space: pre;" direction="ltr" dominant-baseline="text-before-edge">"arch\0"</text></g><g stroke-linecap="round" transform="translate(810 770) rotate(0 40 20)"><path d="M0 0 L80 0 L80 40 L0 40" stroke="none" stroke-width="0" fill="#d0bfff"></path><path d="M0 0 C29.43 0, 58.87 0, 80 0 M0 0 C30.95 0, 61.91 0, 80 0 M80 0 C80 13.56, 80 27.11, 80 40 M80 0 C80 14.41, 80 28.82, 80 40 M80 40 C59.13 40, 38.27 40, 0 40 M80 40 C57.41 40, 34.81 40, 0 40 M0 40 C0 27.44, 0 14.89, 0 0 M0 40 C0 26.45, 0 12.9, 0 0" stroke="#1e1e1e" stroke-width="2" fill="none"></path></g><g transform="translate(821.875 780.4) rotate(0 28.125 9.600000000000023)"><text x="28.125" y="0" font-family="Cascadia, Segoe UI Emoji" font-size="16px" fill="#1e1e1e" text-anchor="middle" style="white-space: pre;" direction="ltr" dominant-baseline="text-before-edge">"os\0"</text></g><g stroke-linecap="round" transform="translate(890 770) rotate(0 80 20)"><path d="M0 0 L160 0 L160 40 L0 40" stroke="none" stroke-width="0" fill="#d0bfff"></path><path d="M0 0 C46.2 0, 92.39 0, 160 0 M0 0 C52.45 0, 104.9 0, 160 0 M160 0 C160 8.29, 160 16.58, 160 40 M160 0 C160 15.59, 160 31.19, 160 40 M160 40 C125.6 40, 91.21 40, 0 40 M160 40 C120.69 40, 81.38 40, 0 40 M0 40 C0 30.36, 0 20.72, 0 0 M0 40 C0 29.97, 0 19.95, 0 0" stroke="#1e1e1e" stroke-width="2" fill="none"></path></g><g transform="translate(899.6875 780.4) rotate(0 70.3125 9.600000000000023)"><text x="70.3125" y="0" font-family="Cascadia, Segoe UI Emoji" font-size="16px" fill="#1e1e1e" text-anchor="middle" style="white-space: pre;" direction="ltr" dominant-baseline="text-before-edge">"compression\0"</text></g><g stroke-linecap="round" transform="translate(1050 770) rotate(0 50 20)"><path d="M0 0 L100 0 L100 40 L0 40" stroke="none" stroke-width="0" fill="#d0bfff"></path><path d="M0 0 C20.94 0, 41.87 0, 100 0 M0 0 C20.91 0, 41.81 0, 100 0 M100 0 C100 12.85, 100 25.7, 100 40 M100 0 C100 10.19, 100 20.38, 100 40 M100 40 C72.83 40, 45.65 40, 0 40 M100 40 C69.17 40, 38.33 40, 0 40 M0 40 C0 24.11, 0 8.21, 0 0 M0 40 C0 28.04, 0 16.07, 0 0" stroke="#1e1e1e" stroke-width="2" fill="none"></path></g><g transform="translate(1062.5 780.4) rotate(0 37.5 9.600000000000023)"><text x="37.5" y="0" font-family="Cascadia, Segoe UI Emoji" font-size="16px" fill="#1e1e1e" text-anchor="middle" style="white-space: pre;" direction="ltr" dominant-baseline="text-before-edge">"load\0"</text></g><g stroke-linecap="round" transform="translate(1150 770) rotate(0 50 20)"><path d="M0 0 L100 0 L100 40 L0 40" stroke="none" stroke-width="0" fill="#d0bfff"></path><path d="M0 0 C26.46 0, 52.93 0, 100 0 M0 0 C39.91 0, 79.82 0, 100 0 M100 0 C100 10.24, 100 20.48, 100 40 M100 0 C100 8.62, 100 17.24, 100 40 M100 40 C62.89 40, 25.79 40, 0 40 M100 40 C61.18 40, 22.37 40, 0 40 M0 40 C0 24.19, 0 8.37, 0 0 M0 40 C0 27.36, 0 14.72, 0 0" stroke="#1e1e1e" stroke-width="2" fill="none"></path></g><g transform="translate(1157.8125 780.4) rotate(0 42.1875 9.600000000000023)"><text x="42.1875" y="0" font-family="Cascadia, Segoe UI Emoji" font-size="16px" fill="#1e1e1e" text-anchor="middle" style="white-space: pre;" direction="ltr" dominant-baseline="text-before-edge">"entry\0"</text></g><g stroke-linecap="round" transform="translate(610 810) rotate(0 320 20)"><path d="M0 0 C186.59 0, 373.18 0, 640 0 M0 0 C213.91 0, 427.81 0, 640 0 M640 0 C640 8.6, 640 17.19, 640 40 M640 0 C640 15.89, 640 31.78, 640 40 M640 40 C475.81 40, 311.62 40, 0 40 M640 40 C439.24 40, 238.48 40, 0 40 M0 40 C0 27.88, 0 15.76, 0 0 M0 40 C0 29.5, 0 19, 0 0" stroke="#1e1e1e" stroke-width="2" fill="none"></path></g><g transform="translate(662.8125 820.4) rotate(0 267.1875 9.599999999999966)"><text x="267.1875" y="0" font-family="Cascadia, Segoe UI Emoji" font-size="16px" fill="#1e1e1e" text-anchor="middle" style="white-space: pre;" direction="ltr" dominant-baseline="text-before-edge">...other null-terminated strings concatenated together...</text></g></svg>